<svg id="Groupe_72" data-name="Groupe 72" xmlns="http://www.w3.org/2000/svg" xmlns:xlink="http://www.w3.org/1999/xlink" width="88" height="77.417" viewBox="0 0 88 77.417">
  <defs>
    <clipPath id="clip-path">
      <rect id="Rectangle_53" data-name="Rectangle 53" width="88" height="77.417" fill="none" stroke="#4738de" stroke-width="2"/>
    </clipPath>
  </defs>
  <g id="Groupe_78" data-name="Groupe 78">
    <g id="Groupe_70" data-name="Groupe 70">
      <g id="Groupe_69" data-name="Groupe 69" transform="translate(0 0)" clip-path="url(#clip-path)">
        <path id="Tracé_59" data-name="Tracé 59" d="M60.486,45.351s7.941-6,13.343-10.059c4.927-3.7,8.9-2.831,12.188-.215a1.73,1.73,0,0,1,.095,2.6L61.347,61a3.3,3.3,0,0,1-2.261.9H26.616" transform="translate(0.178 0.219)" fill="none" stroke="#4738de" stroke-linecap="round" stroke-linejoin="round" stroke-width="2"/>
        <path id="Tracé_60" data-name="Tracé 60" d="M12.283,50.221c6.654-8.348,11.931-11.531,18.5-11.531,5.5,0,8.427.648,13.118,3.8H53.968c1.472,0,6.028.595,6.831,6.636a1.735,1.735,0,0,1-1.717,1.945H39.736" transform="translate(0.082 0.259)" fill="none" stroke="#4738de" stroke-linecap="round" stroke-linejoin="round" stroke-width="2"/>
        <path id="Tracé_61" data-name="Tracé 61" d="M1.158,53.4,9.1,45.458,31.648,68.006l-7.943,7.942" transform="translate(0.008 0.304)" fill="none" stroke="#4738de" stroke-linecap="round" stroke-linejoin="round" stroke-width="2"/>
        <path id="Tracé_62" data-name="Tracé 62" d="M8.7,55.852a2.074,2.074,0,1,0,2.932,0,2.074,2.074,0,0,0-2.932,0" transform="translate(0.054 0.369)" fill="#2e2d2c" stroke="#4738de" stroke-width="2"/>
        <circle id="Ellipse_1" data-name="Ellipse 1" cx="15.901" cy="15.901" r="15.901" transform="translate(36.031 1.166)" fill="none" stroke="#4738de" stroke-linecap="round" stroke-linejoin="round" stroke-width="2"/>
      </g>
    </g>
    <path id="Icon_material-euro-symbol" data-name="Icon material-euro-symbol" d="M13.434,16.039a4.824,4.824,0,0,1-4.288-2.606h4.288V11.945H8.654a4.683,4.683,0,0,1,0-1.489h4.779V8.967H9.145A4.83,4.83,0,0,1,16.583,7.53L17.9,6.212A6.69,6.69,0,0,0,7.12,8.967H4.5v1.489H6.778a6.226,6.226,0,0,0,0,1.489H4.5v1.489H7.12A6.69,6.69,0,0,0,17.9,16.188L16.575,14.87a4.769,4.769,0,0,1-3.142,1.169Z" transform="translate(39.866 5.5)" fill="#4738de"/>
  </g>
</svg>
