<svg xmlns="http://www.w3.org/2000/svg" xmlns:xlink="http://www.w3.org/1999/xlink" width="316" height="140.102" viewBox="0 0 316 140.102">
  <defs>
    <clipPath id="clip-path">
      <rect id="Rectangle_240" data-name="Rectangle 240" width="160" height="107.102" transform="translate(0 0)" fill="none"/>
    </clipPath>
    <clipPath id="clip-path-2">
      <rect id="Rectangle_235" data-name="Rectangle 235" width="51.142" height="41.733" fill="none"/>
    </clipPath>
    <clipPath id="clip-path-3">
      <rect id="Rectangle_236" data-name="Rectangle 236" width="58.701" height="42.586" fill="none"/>
    </clipPath>
    <clipPath id="clip-path-4">
      <rect id="Rectangle_237" data-name="Rectangle 237" width="40.457" height="54.981" fill="none"/>
    </clipPath>
    <clipPath id="clip-path-5">
      <rect id="Rectangle_238" data-name="Rectangle 238" width="121.189" height="79.227" fill="none"/>
    </clipPath>
  </defs>
  <g id="Groupe_293" data-name="Groupe 293" transform="translate(-1234 -515)">
    <text id="Reste_à_vivre" data-name="Reste à vivre" transform="translate(1234 622)" fill="#fff" font-size="10" font-family="NewHero-Light, New Hero" font-weight="300"><tspan x="0" y="0">Reste à vivre</tspan></text>
    <text id="Tous_les_crédits_regroupés_votre_trésorerie_supplémentaire" data-name="Tous les crédits regroupés
+ votre trésorerie 
supplémentaire" transform="translate(1425 523)" fill="#fff" font-size="10" font-family="NewHero-Light, New Hero" font-weight="300"><tspan x="0" y="0">Tous les crédits regroupés</tspan><tspan x="0" y="16">+ votre trésorerie </tspan><tspan x="0" y="32">supplémentaire</tspan></text>
    <g id="Groupe_238" data-name="Groupe 238" transform="translate(-2.504 -34.664)">
      <g id="Groupe_237" data-name="Groupe 237" transform="translate(1300.504 582.664)" clip-path="url(#clip-path)">
        <path id="Tracé_249" data-name="Tracé 249" d="M16.52,12.405,67.662,41.933,65.138.2c-18.8.807-34.771,4.817-48.618,12.205" transform="translate(4.214 0.051)" fill="#fff"/>
        <g id="Groupe_224" data-name="Groupe 224" transform="translate(20.733 0.251)" opacity="0.2">
          <g id="Groupe_223" data-name="Groupe 223">
            <g id="Groupe_222" data-name="Groupe 222" clip-path="url(#clip-path-2)">
              <path id="Tracé_250" data-name="Tracé 250" d="M16.52,12.405,67.662,41.933,65.138.2c-18.8.807-34.771,4.817-48.618,12.205" transform="translate(-16.52 -0.2)" fill="#fff"/>
            </g>
          </g>
        </g>
        <path id="Tracé_251" data-name="Tracé 251" d="M121.026,13.229l-58.7,26.479V55.816l58.7-26.479Z" transform="translate(15.897 3.374)" fill="#e0e0e0"/>
        <g id="Groupe_227" data-name="Groupe 227" transform="translate(78.222 16.603)" opacity="0.3">
          <g id="Groupe_226" data-name="Groupe 226">
            <g id="Groupe_225" data-name="Groupe 225" clip-path="url(#clip-path-3)">
              <path id="Tracé_252" data-name="Tracé 252" d="M121.026,13.229l-58.7,26.479V55.816l58.7-26.479Z" transform="translate(-62.326 -13.229)" fill="#e0e0e0"/>
            </g>
          </g>
        </g>
        <path id="Tracé_253" data-name="Tracé 253" d="M121.555,16.583C105.751,5.822,84.689.153,60.253.079l1.579,26.09,1.023,16.893Z" transform="translate(15.368 0.02)" fill="#fff"/>
        <path id="Tracé_254" data-name="Tracé 254" d="M79.92,50.489l30.008,28.835c1.686-.645,3.243-1.3,5.057-2.119,34.617-15.6,30.344-42.085,5.149-62.556L70.082,40.173l-.612.277Z" transform="translate(17.719 3.736)" fill="#ec1c24"/>
        <path id="Tracé_255" data-name="Tracé 255" d="M109.928,90.188V74.081L69.47,35.207V51.314Z" transform="translate(17.719 8.98)" fill="#770e15"/>
        <g id="Groupe_230" data-name="Groupe 230" transform="translate(87.19 44.187)" opacity="0.6">
          <g id="Groupe_229" data-name="Groupe 229">
            <g id="Groupe_228" data-name="Groupe 228" clip-path="url(#clip-path-4)">
              <path id="Tracé_256" data-name="Tracé 256" d="M109.928,90.188V74.081L69.47,35.207V51.314Z" transform="translate(-69.471 -35.207)" fill="#770e15"/>
            </g>
          </g>
        </g>
        <path id="Tracé_257" data-name="Tracé 257" d="M21.689,22.21C13.064,27.638,3.492,31.067,0,37.677V53.785c-.041,8.4,3.9,16.906,11.995,24.686C23.27,89.305,41.18,96.955,62.42,100.014c20.018,2.88,40.74,1.358,58.768-4.277V79.629L94.766,70.348l-15.508-14.9Z" transform="translate(0 5.665)" fill="#e0e0e0"/>
        <g id="Groupe_233" data-name="Groupe 233" transform="translate(0 27.874)" opacity="0.6">
          <g id="Groupe_232" data-name="Groupe 232">
            <g id="Groupe_231" data-name="Groupe 231" clip-path="url(#clip-path-5)">
              <path id="Tracé_258" data-name="Tracé 258" d="M21.689,22.21C13.064,27.638,3.492,31.067,0,37.677V53.785c-.041,8.4,3.9,16.906,11.995,24.686C23.27,89.305,41.18,96.955,62.42,100.014c20.018,2.88,40.74,1.358,58.768-4.277V79.629L94.766,70.348l-15.508-14.9Z" transform="translate(0 -22.21)" fill="#e0e0e0"/>
            </g>
          </g>
        </g>
        <path id="Tracé_259" data-name="Tracé 259" d="M21.689,9.376C-3.084,24.969-7.079,47.308,11.995,65.637,23.27,76.471,41.18,84.121,62.42,87.18c20.018,2.88,40.74,1.358,58.768-4.277L94.766,57.514l-15.508-14.9Z" transform="translate(0 2.391)" fill="#fff"/>
        <g id="Groupe_236" data-name="Groupe 236" transform="translate(0 11.767)" opacity="0.3">
          <g id="Groupe_235" data-name="Groupe 235">
            <g id="Groupe_234" data-name="Groupe 234" clip-path="url(#clip-path-5)">
              <path id="Tracé_260" data-name="Tracé 260" d="M21.689,9.376C-3.084,24.969-7.079,47.308,11.995,65.637,23.27,76.471,41.18,84.121,62.42,87.18c20.018,2.88,40.74,1.358,58.768-4.277L94.766,57.514l-15.508-14.9Z" transform="translate(0 -9.376)" fill="#fff"/>
            </g>
          </g>
        </g>
        <path id="Tracé_261" data-name="Tracé 261" d="M55.258.251a17.426,17.426,0,0,1,5.734,0l4.173,44.754L57.7,40.7Z" transform="translate(14.094 0)" fill="#fff"/>
        <path id="Tracé_262" data-name="Tracé 262" d="M63.152,39.24v2.391l57.664-28.4Z" transform="translate(16.107 3.374)" fill="#fff"/>
        <path id="Tracé_263" data-name="Tracé 263" d="M130.644,33.907a38.517,38.517,0,0,1,2.475,23.906s-3.67,20.613-31.281,32.706V74.035s30.927-8.679,29.9-33.978Z" transform="translate(25.975 8.648)" fill="#770e15"/>
        <path id="Tracé_264" data-name="Tracé 264" d="M55.258.251s6.712-.565,8.113,0,1.795,44.754,1.795,44.754Z" transform="translate(14.094 0)" fill="#fff"/>
      </g>
      <rect id="Rectangle_241" data-name="Rectangle 241" width="160" height="107.102" transform="translate(1300.504 582.664)" fill="none"/>
      <path id="Tracé_265" data-name="Tracé 265" d="M7457.706,7117.725s10.984-.486,20,0-5.634,45.558-5.634,45.558l-14.366-45.558" transform="translate(-6098.833 -6533.668)" fill="#fff"/>
      <path id="Tracé_266" data-name="Tracé 266" d="M7551.562,7130.759l-73.737,36.338-10.206-7.013Z" transform="translate(-6117.218 -6532.454)" fill="#fff"/>
    </g>
    <path id="Tracé_271" data-name="Tracé 271" d="M7342.652,7096.491h-12.391l-3.2,12.325" transform="translate(-5889.652 -6534.491)" fill="none" stroke="#d1d4ff" stroke-width="1"/>
    <path id="Tracé_272" data-name="Tracé 272" d="M7243.533,7154.784h-13.714l-2.286,12" transform="translate(-5939.533 -6556.784)" fill="none" stroke="#d1d4ff" stroke-width="1"/>
  </g>
</svg>
