<?xml version="1.0" encoding="UTF-8"?>
<svg id="Calque_1" data-name="Calque 1" xmlns="http://www.w3.org/2000/svg" viewBox="0 0 100 86">
  <defs>
    <style>
      .cls-1 {
        fill: #fff;
        stroke: #fff;
        stroke-miterlimit: 10;
      }
    </style>
  </defs>
  <path class="cls-1" d="m50.11,37.96s-.08-.59-.12-1.73c-.04-1.13-.08-2.81-.12-4.98-.01-.72-.02-1.5-.04-2.33-.02-.83-.04-1.71-.03-2.64.11-.93-.2-1.92-.03-2.95.05-1.03,0-2.11-.03-3.24-.04-1.13.07-2.3-.03-3.53-.21-1.22.24-2.49-.03-3.8,0-.16-.01-.33-.02-.49,0-.15,0-.3-.01-.45,0-.07,0-.13,0-.2v-.05s0-.03,0-.03c0,0,0-.02,0-.01h-.1c-.23,0-.46.01-.7.02-.34,0-.68.03-1.02.05-.34-.01-.69-.02-1.04.02-.35.04-.7.09-1.05.14-.17.03-.35.05-.53.09-.17.04-.35.08-.52.12-.35.08-.7.15-1.06.24-.36.03-.73.08-1.09.15l-.27.05c-.09.02-.18.05-.27.07-.18.05-.36.1-.54.15-.72.2-1.42.52-2.12.82-1.53.28-2.97.98-4.26,1.96-1.39.77-2.83,1.59-4.08,2.7-.16.13-.32.26-.49.39-.16.13-.33.26-.48.4-.31.28-.63.56-.95.84-.31.29-.61.59-.92.89-.16.14-.31.3-.46.45-.15.15-.3.31-.46.46-1.05,1.39-2.14,2.74-3.26,4.15-.2.4-.42.79-.64,1.19-.21.4-.43.79-.66,1.18-.21.4-.43.8-.65,1.2-.22.4-.42.82-.64,1.23-.41.83-.72,1.71-.97,2.62-.06.23-.14.45-.19.68-.06.23-.12.46-.18.68-.06.23-.13.45-.2.68-.06.23-.13.46-.2.68-.44,1.85-.65,3.77-.77,5.72-.17,1.94-.16,3.95.31,5.91.34,1.97.88,3.91,1.45,5.86.87,1.85,1.65,3.73,2.62,5.58.13.23.28.44.41.66.14.22.28.44.42.66.13.23.29.43.44.65.15.22.3.43.44.65.31.42.63.84.96,1.25.34.4.7.79,1.07,1.17,1.41,1.59,3.08,2.92,4.76,4.25,1.7,1.31,3.53,2.44,5.51,3.2.25.09.49.19.74.29.25.09.49.18.74.28.25.09.49.2.73.29.25.09.49.18.74.27.25.09.49.19.74.26.25.08.5.15.75.23.25.07.5.16.75.21.25.06.51.11.76.17.25.08.5.17.75.22.25.06.51.11.76.16.26.04.51.1.77.13.26.03.51.05.77.08.26.02.51.05.77.07.26.01.51.02.77.04.25.01.51.03.77.05.26,0,.51.02.76.03,2.03.03,4.07.02,6.03-.42,1.96-.37,3.86-.92,5.71-1.52.43-.25.87-.45,1.31-.65.44-.21.88-.39,1.33-.57.44-.2.88-.39,1.31-.59.43-.22.85-.45,1.25-.7,1.7-.88,3.13-2.12,4.54-3.31.35-.31.67-.63,1.01-.94.17-.16.34-.31.51-.46.16-.16.32-.32.49-.48.16-.16.32-.32.48-.48.16-.16.3-.34.45-.51.29-.34.59-.68.84-1.06,1.14-1.39,2.03-2.91,2.96-4.37l.14-.29.13-.29c.09-.19.19-.39.29-.58.1-.19.21-.37.3-.57.09-.19.19-.38.29-.57.1-.19.19-.38.29-.57.1-.19.17-.39.26-.58.08-.19.16-.39.23-.59.08-.2.15-.39.2-.6.13-.39.27-.79.4-1.18.11-.4.23-.79.34-1.18.12-.39.2-.79.3-1.18.05-.2.1-.39.14-.59.05-.2.08-.39.12-.59.12-.38.24-.77.31-1.16.06-.39.11-.78.15-1.17,0-.1.02-.19.03-.29v-.29c.02-.2.02-.39.03-.58,0-.19.01-.39.02-.58.01-.19,0-.38,0-.58v-.29s.01-.16.01-.16c0-.07,0-.13,0-.19,0-.01,0,0-.02,0h-.03s-.05,0-.05,0h-.1s-.05.01-.05.01h-.02s-.01,0-.01,0h-.32c-.76.02-1.51.02-2.24-.06-1.48-.02-2.91-.12-4.31-.03-1.39.04-2.75-.34-4.06-.03-1.31.05-2.58-.24-3.8-.03-1.22.19-2.4-.02-3.53-.03-1.13-.01-2.21-.02-3.24-.03-1.99-.02-3.79-.05-5.4-.07-1.69-.03-3.17-.05-4.43-.07,0-.47.02-.92.02-1.34,0-.36.02-.69.03-1,.02-.62.03-1.14.05-1.56.03-.84.07-1.28.11-1.28s.07.44.1,1.28c.02.42.04.94.05,1.56.01.56.03,1.2.05,1.93.31,0,.64-.02.99-.02.42,0,.86-.02,1.32-.02.92-.01,1.92-.03,3-.04,2.16-.02,4.62-.05,7.35-.08,1.13-.01,2.3-.17,3.53-.03,1.22,0,2.49-.13,3.8-.03,1.31-.22,2.66-.04,4.06-.03,1.39-.01,2.83.06,4.31-.03.74-.06,1.49-.05,2.24-.03h.28c.15,0,.3.01.45.02.16,0,.31,0,.47,0h.24s.12,0,.12,0c.04,0,.1-.02.08.04,0,.32-.02.63-.02.95v.24s0,.18,0,.18v.3c-.19,1.57-.31,3.17-.51,4.82-.05.2-.1.4-.15.6-.05.2-.11.4-.15.61-.1.41-.17.82-.29,1.23-.11.41-.2.82-.31,1.24-.13.41-.26.82-.4,1.23-.78,1.55-1.36,3.2-2.16,4.82-.8,1.62-1.92,3.08-3.04,4.56-1.19,1.42-2.43,2.86-3.9,4.11-1.38,1.34-2.95,2.54-4.7,3.47-1.66,1.08-3.5,1.91-5.41,2.62-1.88.78-3.9,1.24-5.95,1.6-.51.11-1.03.15-1.55.21-.52.06-1.04.07-1.57.1-.26,0-.52.03-.79.04-.26,0-.53,0-.79.02-.26.01-.53.03-.79.04-.26,0-.53.02-.8.04-2.13-.02-4.26-.34-6.38-.78-2.11-.5-4.18-1.22-6.21-2.07-1.91-1.1-3.89-2.09-5.75-3.34-1.85-1.26-3.5-2.78-4.96-4.43-1.5-1.62-2.8-3.39-3.9-5.26-.14-.23-.28-.46-.42-.7-.14-.23-.27-.47-.39-.71-.12-.24-.24-.48-.36-.72l-.18-.36c-.06-.12-.11-.25-.16-.37-.44-.98-.82-1.98-1.22-2.96-.4-.99-.68-2.01-.9-3.04-.05-.26-.11-.51-.16-.77-.05-.26-.11-.51-.15-.77-.04-.26-.09-.51-.14-.77-.05-.26-.11-.51-.15-.77-.36-2.05-.5-4.13-.3-6.15.05-1.01.18-2.02.35-3,.06-.5.17-.98.25-1.47.04-.24.07-.49.11-.74.04-.24.08-.49.11-.74.05-.24.1-.48.14-.73.06-.24.11-.48.17-.72.05-.24.11-.48.17-.72.05-.24.13-.47.2-.71.27-.94.65-1.85,1.16-2.67.18-.44.37-.89.59-1.31.22-.42.46-.84.68-1.25.25-.4.5-.8.73-1.21.24-.4.49-.79.71-1.2.07-.09.15-.18.22-.27l.22-.27c.15-.18.29-.36.43-.55.27-.37.55-.73.83-1.1.14-.18.27-.37.41-.55.14-.18.29-.35.43-.53.29-.35.57-.71.88-1.02.16-.16.32-.32.48-.47.16-.16.31-.32.48-.46.33-.3.65-.6.98-.89.34-.28.67-.57.99-.86.16-.15.33-.28.5-.42.17-.14.33-.28.49-.42,1.31-1.14,2.82-1.93,4.25-2.76.35-.22.72-.41,1.08-.59.36-.19.75-.33,1.12-.48.75-.31,1.51-.55,2.22-.91.75-.24,1.48-.51,2.23-.71.18-.05.37-.11.55-.16.09-.03.18-.05.28-.08l.28-.06c.37-.08.74-.16,1.11-.24.35-.16.71-.25,1.08-.33.18-.04.36-.07.55-.1.18-.03.37-.04.55-.05.37-.02.73-.04,1.09-.06.36-.01.72,0,1.07-.03.35-.01.7-.06,1.05-.07.18-.01.36-.03.53-.04.29-.02.57-.03.85-.04.14,0,.29-.01.43-.02h.03s.01,0,.01,0c0,0,0,0,0,.01v.05s0,.11,0,.11v.21c0,.28,0,.57,0,.85v.18s-.01.12-.01.12c0,.08-.01.17-.02.25-.02.17-.04.33-.06.49.23,1.31.03,2.58-.03,3.8-.07,1.22.1,2.4-.03,3.53.16,1.13-.09,2.21-.03,3.24-.11,1.03,0,2.02-.03,2.95.04.93.02,1.81-.04,2.64-.01.83-.03,1.61-.04,2.33-.04,2.17-.08,3.84-.12,4.98-.04,1.13-.08,1.73-.12,1.73Z"/>
  <path class="cls-1" d="m55.08,11.45c.08,0,.16,1.03.24,2.92.01.31.02.65.04,1.01.02.36.05.74.03,1.15-.11.41.21.83.04,1.28-.05.45,0,.92.03,1.41.04.49-.07,1,.03,1.53.22.53-.24,1.08.03,1.65.06.57.04,1.16.03,1.77-.16.61,0,1.23.03,1.87-.2.64-.11,1.3.03,1.98-.27.67-.23,1.37.02,2.07,0,.71-.1,1.43.02,2.17.02.74.07,1.49.02,2.26.18.77.17,1.55.02,2.34.02.09.04.18.06.27v.04s0,0,.01.01h0s.02.02.02.02c.02.02.03.02.03.04.02,0,.03.01.05.03h.01s0,.01,0,.01h.04s.17.02.17.02c.11.01.22.03.33.04.82.11,1.65-.17,2.5-.02.84.01,1.7-.04,2.56-.01.87.08,1.74.17,2.63,0,.89-.05,1.78-.11,2.69,0,.9-.21,1.82-.12,2.74,0,.92-.04,1.85.11,2.79,0,.94.03,1.88-.09,2.84,0,.95.06,1.9.12,2.84,0,.47-.07.94-.05,1.4-.03.23.01.46.03.7.03.12,0,.23,0,.35,0h.17s.08,0,.08,0h.01c.05.06.15.07.22.07,0-.04-.02-.08-.04-.12,0-.02-.02-.04-.03-.05v-.02s-.02,0-.02,0h0s0,0,0,0h0c-.07-.32-.16-.61-.2-.92-.05-.21-.09-.43-.13-.65-.05-.22-.09-.43-.14-.65-.05-.21-.1-.43-.16-.64-.07-.21-.14-.41-.23-.61-.07-.2-.14-.41-.22-.61-.08-.2-.15-.4-.23-.6-.14-.41-.29-.8-.41-1.21-.29-.34-.45-.73-.57-1.13-.12-.4-.24-.81-.45-1.17-.26-.8-.78-1.45-1.17-2.15-.22-.34-.42-.68-.61-1.03-.19-.35-.41-.68-.68-.96-.21-.33-.47-.62-.71-.92-.12-.15-.24-.3-.35-.45-.12-.15-.23-.3-.32-.47-.15-.12-.27-.26-.39-.4-.12-.14-.23-.29-.34-.44-.11-.15-.22-.3-.33-.44-.12-.14-.25-.27-.39-.38-.5-.53-1.02-1.01-1.51-1.51-.18-.32-.43-.56-.7-.77-.28-.2-.57-.37-.83-.58-.12-.11-.26-.21-.39-.3-.14-.09-.27-.18-.41-.27-.13-.09-.26-.19-.39-.29-.13-.1-.24-.2-.35-.33-.13-.1-.25-.19-.37-.29-.12-.1-.24-.2-.37-.29-.25-.18-.51-.35-.78-.47-.26-.14-.47-.36-.7-.55-.11-.1-.23-.18-.36-.25-.13-.06-.27-.1-.43-.1-.26-.11-.48-.29-.7-.46-.23-.16-.46-.29-.74-.32-.14-.01-.26-.05-.38-.1-.12-.05-.23-.11-.34-.17-.22-.13-.42-.28-.64-.38-.44-.2-.88-.37-1.28-.55-.47-.17-.91-.35-1.33-.5-.42-.14-.82-.29-1.19-.4-.37-.11-.72-.22-1.04-.31-.32-.09-.61-.16-.87-.23-.13-.04-.25-.07-.37-.1-.12-.03-.22-.06-.32-.08-.2-.05-.37-.1-.5-.14-.27-.08-.41-.13-.4-.17,0-.03.19-.04.53,0,.17.01.39.03.64.06.25.03.55.08.88.14,1.32.23,3.24.67,5.55,1.59.23.1.48.16.73.24.12.04.25.09.36.15.12.06.23.14.34.23.24.12.5.21.76.32.26.11.51.24.74.42.15.02.3.06.43.12.13.06.26.14.39.22.25.17.49.36.74.53.26.16.52.34.78.52.13.09.26.18.4.27.13.09.27.17.42.25.15.07.29.15.43.25.13.1.26.21.39.32.13.11.25.22.39.32.13.1.27.2.42.3.22.27.47.51.75.73.27.23.56.43.87.63.44.58,1.08.98,1.59,1.53.09.17.21.32.32.47.12.15.24.29.38.43.13.14.28.27.42.4.14.13.28.27.42.41.14.14.27.29.4.44.13.15.24.32.36.48.23.32.47.65.72.97.21.34.47.66.7,1.01.23.34.48.67.67,1.05.51.67.96,1.4,1.24,2.22.22.37.42.76.59,1.16.17.4.35.81.5,1.22.2.4.37.81.5,1.24.07.21.14.43.21.64.07.21.13.43.2.65.08.21.13.43.19.66.05.22.08.45.13.67.04.23.09.45.16.67.06.22.13.44.24.66.08.31.15.63.2.95.1.58.2,1.16.3,1.74-.52,0-1.04,0-1.57.01-.26,0-.52-.01-.77-.02-.23,0-.46,0-.7-.01-.46,0-.93,0-1.4.03-.94-.22-1.88-.08-2.84,0-.95.06-1.9.03-2.84,0-.94.02-1.87,0-2.79,0-.92.06-1.84-.09-2.74,0-.91.09-1.8-.1-2.69,0-.89.06-1.76.1-2.63-.01-.87,0-1.72-.2-2.56-.01-.84.04-1.68.29-2.5-.02-.11,0-.22.02-.33.02h-.17s-.27,0-.27,0c-.4,0-.78-.03-1.15-.04.01-.34.02-.66.02-.98v-.24s0-.12,0-.12v-.05s0-.04,0-.04c0-.09-.02-.18-.03-.27.22-.79.01-1.58.02-2.34.04-.77.12-1.52.02-2.26-.11-.74.06-1.46.02-2.17-.13-.71.17-1.4.02-2.07.03-.68-.02-1.34.03-1.98-.3-.64,0-1.27.03-1.87.04-.61-.2-1.2.03-1.77-.23-.57-.03-1.12.03-1.65.07-.53-.1-1.04.03-1.53-.16-.49.09-.96.03-1.41.11-.45,0-.88.04-1.28-.04-.41-.02-.79.04-1.15.01-.36.03-.7.04-1.01.07-1.89.15-2.92.24-2.92Z"/>
</svg>