<?xml version="1.0" encoding="UTF-8"?>
<svg id="Calque_1" data-name="Calque 1" xmlns="http://www.w3.org/2000/svg" viewBox="0 0 100 86">
  <defs>
    <style>
      .cls-1 {
        fill: #fff;
        stroke: #fff;
        stroke-miterlimit: 10;
      }
    </style>
  </defs>
  <path class="cls-1" d="m59.72,14.96s-.33.52-1.07,1.4c-.75.88-1.87,2.17-3.33,3.82-.49.55-1.01,1.14-1.58,1.77-.55.64-1.14,1.32-1.79,2.01-.75.6-1.13,1.62-2.01,2.23-.76.73-1.47,1.58-2.21,2.45-.74.88-1.66,1.66-2.41,2.66-.64,1.11-1.95,1.64-2.6,2.86-.85,1.03-1.8,2.03-2.78,3.05-1.12.89-1.96,2.11-2.95,3.24-1.21.92-2.18,2.13-3.12,3.42-1.34.91-2.4,2.14-3.28,3.58-1.12,1.22-2.37,2.37-3.43,3.74-1.16,1.28-2.3,2.62-3.57,3.89-1.04,1.48-2.29,2.81-3.71,4.04-1.07,1.54-2.43,2.85-3.83,4.17-1.41,1.31-2.46,2.99-3.96,4.29-.58.62-1.16,1.25-1.74,1.89-.2.22-.15.17-.19.22l-.07.08c-.05.06-.09.11-.15.16.04,0,.08,0,.13.01.05.03.15.05.28.08.25.01.5.02.75.03.26,0,.51.01.77.02,1.02.01,2.06-.02,3.09-.14,2.07-.06,4.17-.15,6.29-.01,2.12-.28,4.26-.15,6.42,0,2.16-.05,4.34.15,6.54,0,1.1.02,2.2,0,3.31-.03.55,0,1.11-.02,1.66-.02.28,0,.56,0,.83.01h.21s.1,0,.1,0c.03,0,.08,0,.07,0l.06.02h0l.05-.03.28-.28.59-.59c.39-.4.78-.79,1.16-1.2.76-.81,1.5-1.63,2.18-2.49,1.36-1.73,3.03-3.16,4.45-4.79,1.66-1.41,2.86-3.21,4.37-4.7,1.42-1.57,2.98-2.99,4.29-4.61,1.37-1.55,2.73-3.09,4.19-4.5,1.08-1.75,2.81-2.88,4.09-4.39,1.46-1.33,2.65-2.89,3.98-4.27,1.25-1.46,2.72-2.67,3.87-4.14,1.29-1.34,2.41-2.79,3.74-4,1.08-1.45,2.54-2.5,3.61-3.86,1.17-1.27,2.31-2.52,3.47-3.7,1.35-1,2.26-2.37,3.32-3.54.55-.57,1.05-1.17,1.56-1.75.25-.29.51-.58.78-.85l.02-.02h0s.02-.02.02-.02l.04-.03.08-.06c.06-.04.13-.08.21-.14.12-.12.26-.25.42-.4-.17-.02-.38-.04-.62-.05-.12,0-.24,0-.36,0l-.36.02c-.13,0-.25.02-.38.03-1.42.04-2.8-.45-4.13-.04-1.33.08-2.62-.32-3.86-.04-1.24.26-2.44-.03-3.59-.04-1.15-.02-2.25-.03-3.3-.05-4.73-.07-8.45-.14-10.99-.22-2.54-.08-3.89-.16-3.89-.24,0-.05.42-.09,1.23-.14.81-.05,2-.09,3.56-.13,3.11-.08,7.66-.16,13.4-.23,1.15-.01,2.35-.23,3.59-.04,1.24,0,2.53-.16,3.86-.04,1.33-.29,2.71-.05,4.13-.04h.79c.41,0,.82,0,1.23.01.82,0,1.63.02,2.49,0-.44.49-.87.98-1.31,1.49-.18.22-.38.46-.58.69l-.32.36-.31.34c-.26.28-.53.55-.8.83-.54.55-1.1,1.1-1.59,1.72-1.2,1.04-2.27,2.26-3.28,3.58-1.25,1.1-2.25,2.48-3.43,3.74-1.37,1.09-2.43,2.5-3.57,3.89-1.15,1.38-2.49,2.63-3.71,4.04-1.3,1.33-2.5,2.79-3.83,4.17-1.21,1.49-2.5,2.95-3.95,4.29-1.28,1.51-2.69,2.93-4.07,4.41-1.3,1.56-2.78,2.98-4.17,4.52-1.37,1.56-3.04,2.87-4.27,4.62-1.41,1.58-2.93,3.09-4.36,4.71-1.5,1.56-3.01,3.13-4.44,4.8-.85.71-1.62,1.5-2.36,2.32-.37.41-.73.84-1.08,1.26l-.53.64-.29.34-.52.59h0c-.69.02-1.38.03-2.07.04-.56,0-1.11,0-1.66,0-1.11,0-2.21-.03-3.31-.05-2.2.03-4.38.01-6.54,0-2.16.09-4.3-.12-6.42,0-2.12.12-4.22-.13-6.29-.01-1.04.04-2.07.08-3.09.08-.26,0-.51,0-.77,0-.26,0-.53,0-.79-.02-.98-.01-1.93-.04-2.81-.07-.51,0-1.02,0-1.51-.01,1.07-1.1,2.13-2.2,3.19-3.29.6-.62,1.17-1.25,1.68-1.95,1.3-1.49,2.38-3.14,3.98-4.27,1.23-1.47,2.73-2.66,3.87-4.14,1.48-1.16,2.52-2.69,3.74-4,1.26-1.28,2.53-2.5,3.61-3.85,1.07-1.36,2.38-2.46,3.47-3.7,1-1.33,2.39-2.25,3.32-3.54,1.1-1.13,2.1-2.31,3.17-3.37.73-1.37,2.02-2.17,3.01-3.19,1.01-1,1.71-2.23,2.84-3,.69-1.18,1.75-1.95,2.66-2.81.91-.85,1.57-1.88,2.47-2.6.63-.99,1.61-1.57,2.28-2.39.82-.68,1.4-1.5,2.07-2.17.61-.73,1.23-1.38,1.86-1.94.59-.61,1.14-1.18,1.65-1.71,1.53-1.58,2.73-2.8,3.55-3.61.82-.81,1.27-1.22,1.31-1.18Z"/>
  <path class="cls-1" d="m79.75,45.12c0,.13-.9.16-2.45.56-.13.03-.26.08-.4.11-.14.04-.28.08-.42.13-.14.06-.29.11-.44.17-.15.06-.31.12-.47.17-.19-.02-.33.12-.47.24-.15.12-.29.24-.51.21-.19.04-.36.13-.53.23-.17.1-.33.22-.5.35-.17.12-.35.21-.54.32-.19.1-.37.23-.51.41-.1.24-.31.32-.54.4-.22.09-.44.2-.5.49-.29.38-.65.7-.99,1.07-.5.24-.64.8-.91,1.25-.51.3-.7.85-.78,1.42-.56.34-.75.93-.61,1.59-.16.55-.45,1.1-.39,1.73-.07.6-.07,1.21-.14,1.83.24.63.25,1.23.14,1.9.35.6.38,1.23.46,1.91.02.17.07.33.13.48.07.15.16.3.24.45.08.15.18.29.25.44.07.15.13.31.17.48.3.62.73,1.16,1.12,1.75.33.62.74,1.25,1.44,1.56.57.44,1.19.8,1.73,1.31.76.16,1.33.58,1.97,1,.7.23,1.38.63,2.16.63.74.19,1.51.1,2.28.22.77.08,1.56.09,2.27-.22.35-.16.72-.23,1.09-.3.19-.03.37-.08.55-.13.18-.04.36-.11.52-.2.2,0,.38-.06.55-.13.09-.04.17-.08.25-.12.08-.05.16-.1.24-.15l.23-.16.22-.16c.15-.1.31-.2.47-.28.6-.41,1.29-.72,1.73-1.31.5-.52.93-1.07,1.44-1.56.05-.4.27-.66.5-.92.12-.12.24-.25.35-.39.06-.07.11-.14.16-.21.04-.07.08-.15.11-.23.46-.54.55-1.24.79-1.86.06-.33.2-.63.3-.95l.08-.24c.02-.08.04-.16.05-.24.03-.16.05-.32.03-.49.13-.64,0-1.28.14-1.9-.05-.16-.07-.31-.07-.46,0-.15,0-.31.02-.46.02-.16.02-.31.01-.46,0-.15-.03-.3-.09-.45-.09-.6-.26-1.16-.39-1.73.03-.16.02-.31,0-.46-.03-.14-.09-.28-.16-.4-.06-.13-.14-.25-.22-.37-.08-.12-.15-.24-.22-.36-.22-.52-.66-.87-.78-1.42-.27-.45-.48-.95-.91-1.25-.18-.18-.26-.43-.39-.65-.12-.23-.29-.41-.6-.42-.2-.13-.32-.34-.47-.53-.15-.18-.31-.35-.57-.37-.25-.02-.42-.16-.58-.3-.15-.15-.29-.33-.47-.43-.17-.11-.34-.21-.52-.31-.17-.1-.34-.19-.51-.27-.75-.38-1.47-.65-2.1-.85-.63-.2-1.19-.32-1.64-.41-.46-.08-.81-.15-1.05-.19-.24-.05-.37-.09-.37-.13,0-.08.62-.21,1.8-.14.59.04,1.31.13,2.14.35.83.22,1.76.56,2.74,1.08.2.1.42.17.63.27.21.09.41.23.55.45.2.13.41.26.62.39.21.14.41.3.56.52.57.14.8.7,1.14,1.12.38.41.64.91,1.06,1.33.23.2.38.46.5.74.13.27.24.56.43.81.1.63.39,1.18.74,1.75.03.67.4,1.25.5,1.92-.16.71.1,1.35.21,2.06.1.71-.06,1.42-.11,2.15-.16.71-.2,1.47-.47,2.18-.11.76-.37,1.51-.86,2.13-.28.73-.77,1.38-1.25,2.01-.4.71-1.04,1.24-1.62,1.81-.29.3-.65.51-1,.73-.17.12-.35.22-.51.35-.16.13-.32.27-.46.44-.69.48-1.49.8-2.26,1.16-.81.28-1.64.49-2.48.73-.9-.12-1.73.14-2.62.25-.88.08-1.77-.05-2.62-.25-.86-.14-1.69-.4-2.48-.73-.84-.24-1.5-.82-2.26-1.16-.19-.09-.38-.19-.54-.32-.17-.13-.33-.26-.48-.4-.31-.28-.6-.57-.94-.8-.66-.49-1.26-1.08-1.62-1.81-.24-.32-.42-.68-.59-1.04-.09-.17-.18-.35-.29-.51-.05-.08-.11-.16-.17-.24-.06-.08-.12-.15-.19-.23-.1-.17-.22-.33-.33-.49-.11-.17-.23-.32-.31-.5-.09-.17-.17-.35-.21-.54-.04-.19-.05-.39-.01-.6-.16-.35-.22-.72-.25-1.1-.01-.09-.02-.18-.04-.28,0-.09-.02-.18-.04-.27-.03-.18-.08-.36-.14-.53.05-.19.06-.38.06-.56,0-.18-.02-.36-.05-.53-.03-.18-.06-.35-.08-.53-.03-.18-.05-.35-.04-.53.06-.71.23-1.37.21-2.06-.03-.7.35-1.3.5-1.92.01-.17.06-.32.12-.47.07-.15.15-.29.23-.42.08-.14.17-.27.24-.41.07-.14.12-.29.15-.44.31-.53.55-1.09.93-1.54,0-.35.17-.6.39-.79.22-.19.48-.35.67-.54.39-.38.56-.98,1.14-1.12.09-.28.28-.46.5-.59.22-.12.46-.22.69-.32.22-.1.39-.27.58-.41.18-.14.37-.28.61-.31.14-.2.34-.29.56-.34.21-.06.42-.09.59-.21.42-.04.73-.3,1.08-.39.16-.08.33-.14.5-.19.17-.04.33-.06.5-.07.16-.04.31-.06.46-.09.15-.02.29-.05.43-.07,1.67-.22,2.58-.03,2.57.06Z"/>
  <path class="cls-1" d="m79.75,53.56c0,.06-.08.11-.21.17-.07.03-.15.06-.25.09-.1.04-.21.08-.33.13-.08.03-.17.08-.26.11-.04.03-.09.05-.14.08-.05.03-.09.05-.15.06-.16-.1-.11.32-.3.17-.13,0-.23.09-.31.21-.08.11-.28.05-.31.25.03.16-.07.13-.17.12-.1-.01-.2,0-.13.18-.06.15-.17.25-.29.35-.14-.02-.19.05-.21.14-.02.09-.02.18-.05.26-.3,0-.32.22-.21.45-.2,0-.32.05-.33.14-.02.09.04.21.17.35-.03.08-.07.16-.11.25-.02.04-.03.09-.03.13,0,.05.02.1.05.15,0,.09,0,.18,0,.28,0,.09,0,.19-.03.28.11.1.19.18.19.27,0,.04,0,.09-.03.14-.02.05-.05.1-.1.15.28.15.22.33.15.56-.03.12.06.19.13.27.08.07.17.14.12.28.03.1.11.17.17.25.06.08.13.16.17.25.01.06.02.12.03.17.02.05.04.1.07.15.03.05.07.08.12.11.05.03.12.03.2.02.1.05.2.09.29.14.09.05.16.13.22.24.32-.12.43.07.58.29.11.01.2.1.3.14.1.05.21.09.33.04.11.04.22.03.33.02.11-.02.22-.02.33.04.11.03.23.07.35.08.12,0,.23-.05.32-.14.09-.11.19-.12.31-.12.11,0,.23,0,.32-.07.15.09.25,0,.33-.08.08-.08.14-.2.25-.21.09-.06.19-.1.29-.15.1-.04.19-.11.22-.23l.09-.13s.06-.09.09-.13c.03-.04.07-.08.11-.11.04-.03.08-.06.14-.09-.1-.2-.02-.26.08-.31.1-.05.26-.08.26-.2.12-.05.16-.15.18-.25.01-.1.01-.21.07-.29,0-.1.06-.19.12-.27.06-.08.09-.18.03-.29.02-.05.02-.09.02-.14,0-.05-.02-.1-.02-.14-.02-.1,0-.19.07-.28-.1-.09-.07-.18-.02-.28.04-.09.08-.2,0-.28,0-.04-.01-.09-.02-.13l-.03-.13c-.02-.09-.03-.17-.04-.26.12-.13.1-.22.04-.3-.05-.08-.16-.12-.21-.19-.04-.18-.31-.2-.21-.45-.03-.07-.05-.16-.08-.24-.03-.08-.08-.15-.18-.16-.07-.04-.04-.17-.04-.28,0-.11-.06-.17-.25-.07-.08-.02-.08-.13-.1-.22-.02-.08-.07-.15-.21-.08-.25.12-.21-.17-.31-.25-.1-.09-.21-.14-.31-.21-.46-.29-.88-.43-1.18-.55-.3-.1-.47-.18-.47-.27,0-.05.05-.09.16-.13.11-.03.27-.09.48-.09.42-.03,1.07.03,1.81.38.14.07.42-.02.45.24.07.05.17.08.26.11.09.04.17.1.2.21.17-.04.26.02.31.11.05.09.07.21.14.29.08.07.12.17.18.26.06.09.13.17.24.23.25.1.17.42.36.57-.05.28.06.47.3.65-.04.14,0,.26.05.37.03.06.06.11.1.17.03.06.05.12.06.18-.11.15-.11.27-.07.4.03.12.11.25.17.38.06.13.03.27.01.41,0,.07-.02.14-.03.21-.01.07-.02.14-.01.21-.08.27-.04.57-.16.84.01.16,0,.31-.05.45-.05.14-.14.27-.28.37-.02.16-.11.29-.19.41-.08.13-.19.24-.28.37-.03.08-.06.15-.11.21-.05.06-.1.12-.16.17l-.18.16c-.06.05-.12.1-.17.16-.1.13-.26.18-.41.24-.15.06-.28.15-.34.35-.26.21-.59.28-.87.45-.16.04-.32.08-.48.12-.16.04-.32.09-.47.16-.19-.12-.35-.12-.52-.08-.16.03-.32.11-.49.18-.17.03-.34.04-.51.02-.17-.02-.33-.07-.5-.12-.17-.02-.33-.06-.49-.1-.16-.04-.31-.12-.46-.18-.17-.02-.31-.13-.44-.22-.14-.09-.26-.2-.43-.24-.18-.03-.28-.16-.39-.28-.11-.12-.2-.25-.36-.31-.07-.04-.15-.08-.21-.12-.06-.05-.12-.1-.18-.16-.06-.06-.1-.12-.14-.19-.04-.07-.06-.15-.08-.23-.09-.12-.13-.28-.18-.43-.04-.15-.13-.27-.3-.35-.09-.12-.25-.21-.34-.34-.09-.13-.13-.28.02-.48-.09-.12-.08-.28-.07-.43,0-.15.02-.29-.09-.41.06-.08.09-.15.1-.22.01-.07,0-.13-.02-.2-.04-.13-.12-.27-.11-.4.04-.13.08-.26.1-.39.03-.13.04-.25,0-.39-.02-.07-.03-.14-.02-.2.02-.06.04-.12.07-.18.06-.12.13-.22.15-.35-.04-.14.06-.24.15-.33.09-.09.19-.17.15-.32.13-.2.2-.42.36-.57-.1-.2-.03-.29.08-.35.11-.05.25-.07.34-.13.09-.06.11-.17.15-.28.04-.1.12-.17.29-.12-.03-.17.04-.25.13-.28.1-.03.23-.02.32-.04.19-.04.22-.3.45-.24.02-.14.1-.15.2-.14.09,0,.19.03.24-.03.19.06.27-.1.41-.12.05-.04.11-.07.17-.09.06,0,.13,0,.19.02.12-.01.22-.03.33-.03.15,0,.29,0,.4.02.11.01.21.04.29.06.16.04.23.1.23.15Z"/>
  <path class="cls-1" d="m20.82,14.95c0,.13-.9.16-2.45.56-.13.03-.26.08-.4.11-.14.04-.28.08-.42.13-.14.06-.29.11-.44.17-.15.06-.31.12-.47.17-.19-.02-.33.12-.47.24-.15.12-.29.24-.51.21-.19.04-.36.13-.53.23-.17.1-.33.22-.5.35-.17.12-.35.21-.54.32-.19.1-.37.23-.51.41-.1.24-.31.32-.54.4-.22.09-.44.2-.5.49-.29.38-.65.7-.99,1.07-.5.24-.65.79-.91,1.25-.51.3-.7.85-.78,1.42-.56.34-.76.93-.61,1.59-.16.55-.45,1.1-.39,1.73-.07.6-.07,1.21-.14,1.83.24.63.25,1.23.14,1.9.35.6.39,1.23.46,1.91.02.17.07.33.13.48.07.15.16.3.24.45.18.29.35.58.42.93.3.62.73,1.16,1.12,1.75.33.62.74,1.25,1.44,1.56.57.44,1.19.8,1.73,1.31.76.16,1.33.58,1.97,1,.7.23,1.38.63,2.16.63.74.19,1.51.1,2.27.22.77.08,1.56.09,2.27-.22.35-.16.72-.23,1.09-.3.19-.03.37-.08.55-.12.18-.05.36-.12.52-.2.2,0,.38-.06.55-.13.09-.04.17-.08.25-.12.08-.05.16-.1.24-.15l.23-.16.22-.16c.15-.1.31-.2.47-.28.6-.41,1.29-.72,1.73-1.31.5-.52.93-1.07,1.44-1.56.05-.4.26-.66.5-.92.12-.12.24-.25.35-.39.06-.07.11-.14.15-.21.04-.07.08-.15.11-.23.47-.54.55-1.25.79-1.86.06-.33.2-.63.3-.95l.08-.24c.02-.08.04-.16.05-.24.03-.16.05-.32.03-.49.13-.64,0-1.28.14-1.9-.05-.16-.07-.31-.07-.46,0-.15,0-.31.02-.46.02-.16.02-.31,0-.46,0-.15-.03-.3-.09-.45-.09-.6-.26-1.16-.39-1.73.03-.16.02-.31,0-.46-.03-.14-.09-.27-.16-.4-.06-.13-.14-.25-.22-.37-.08-.12-.15-.24-.22-.36-.22-.52-.67-.87-.78-1.42-.28-.45-.48-.95-.91-1.25-.18-.18-.27-.43-.39-.65-.12-.23-.29-.41-.6-.42-.2-.13-.32-.34-.47-.53-.15-.18-.31-.35-.57-.37-.26-.02-.42-.16-.58-.3-.15-.15-.29-.32-.47-.43-.17-.11-.34-.21-.52-.31-.17-.1-.34-.19-.51-.27-.75-.38-1.47-.65-2.1-.85-.63-.2-1.19-.32-1.64-.41-.46-.08-.81-.15-1.05-.19-.24-.05-.36-.09-.36-.13,0-.08.62-.21,1.8-.14.59.04,1.31.13,2.14.35.83.22,1.76.56,2.74,1.08.2.1.42.17.63.27.22.09.41.23.55.45.2.13.41.26.62.39.21.13.41.3.56.52.58.14.8.69,1.14,1.12.38.41.64.91,1.06,1.33.23.2.38.46.5.74.13.27.24.56.43.81.1.63.39,1.18.74,1.75.03.67.4,1.25.5,1.92-.15.71.1,1.35.21,2.06.1.71-.06,1.42-.11,2.15-.16.71-.2,1.47-.47,2.18-.11.76-.37,1.51-.86,2.13-.28.74-.77,1.38-1.25,2.01-.4.71-1.04,1.24-1.62,1.81-.29.3-.65.51-1,.73-.17.12-.35.22-.51.35-.16.13-.32.27-.46.44-.69.48-1.49.8-2.26,1.16-.81.28-1.64.49-2.48.73-.9-.12-1.73.14-2.62.25-.88.08-1.77-.05-2.62-.25-.86-.14-1.69-.4-2.48-.73-.83-.24-1.49-.81-2.26-1.16-.19-.09-.38-.19-.54-.32-.17-.13-.33-.26-.48-.4-.31-.28-.6-.57-.94-.8-.66-.49-1.25-1.08-1.62-1.81-.24-.32-.42-.68-.59-1.04-.09-.17-.18-.35-.29-.51-.05-.08-.11-.16-.17-.24-.06-.08-.12-.15-.2-.23-.21-.33-.45-.65-.64-.99-.09-.17-.17-.35-.21-.54-.04-.19-.05-.39-.01-.6-.16-.35-.22-.72-.26-1.09-.01-.09-.02-.18-.04-.28-.01-.09-.02-.18-.04-.27-.03-.18-.08-.36-.14-.53.05-.19.06-.38.06-.55,0-.18-.02-.36-.05-.54-.03-.18-.06-.35-.08-.53-.02-.18-.05-.35-.04-.53.06-.71.23-1.37.21-2.06-.03-.7.35-1.3.5-1.92.01-.17.06-.32.12-.47.07-.15.15-.29.23-.42.08-.14.17-.27.24-.41.07-.14.12-.29.15-.44.31-.53.55-1.09.93-1.55,0-.35.17-.6.39-.79.22-.19.48-.35.67-.54.39-.38.56-.98,1.14-1.12.09-.28.28-.46.5-.59.22-.12.46-.22.69-.32.22-.1.39-.27.58-.41.18-.14.37-.28.6-.31.14-.2.34-.29.56-.34.21-.06.42-.09.59-.21.42-.04.72-.3,1.08-.39.16-.08.33-.15.49-.19.17-.04.33-.06.5-.07.16-.04.31-.06.46-.09.15-.02.29-.05.43-.07,1.67-.22,2.58-.03,2.57.06Z"/>
  <path class="cls-1" d="m20.82,23.4c0,.05-.08.11-.22.17-.07.03-.15.06-.25.09-.1.04-.21.08-.33.13-.08.03-.17.08-.26.11-.04.03-.09.05-.14.08-.05.03-.09.05-.15.06-.16-.1-.11.32-.3.17-.13,0-.23.1-.31.21-.08.11-.28.05-.31.25.03.16-.07.13-.17.12-.1-.01-.2,0-.13.18-.06.15-.17.25-.29.35-.14-.02-.19.05-.21.14-.02.09-.02.18-.05.26-.3,0-.31.22-.21.45-.41,0-.43.22-.17.49-.03.08-.07.16-.11.25-.02.04-.03.09-.04.13,0,.05.02.1.05.15,0,.09,0,.18,0,.28,0,.09,0,.18-.03.28.11.1.19.18.19.27,0,.05,0,.09-.03.14-.02.05-.05.1-.09.15.28.15.22.33.15.57-.03.12.05.19.13.27.08.07.17.14.12.28.03.1.11.17.17.25.06.08.13.16.18.25,0,.06.02.12.03.17.02.05.04.1.07.15.03.04.07.08.12.11.05.02.12.03.2.02.1.05.2.09.29.14.09.05.16.13.22.24.32-.12.43.07.58.29.11.01.2.1.3.15.1.05.21.09.33.04.11.04.22.03.33.02.11-.02.22-.02.34.04.11.03.23.07.35.08.11,0,.23-.05.32-.14.09-.11.2-.12.31-.12.11,0,.23,0,.32-.07.15.09.25,0,.33-.08.08-.08.14-.2.25-.21.09-.06.19-.1.29-.15.1-.04.19-.11.22-.23.03-.05.06-.09.09-.13.03-.05.06-.09.09-.13.03-.04.07-.08.11-.11.04-.03.08-.06.14-.09-.1-.2-.02-.26.08-.31.1-.05.26-.08.26-.2.12-.06.16-.15.18-.25.01-.1.01-.21.07-.29,0-.11.06-.19.12-.27.07-.09.09-.19.03-.29.02-.05.02-.09.02-.14,0-.05-.01-.1-.02-.14-.02-.1,0-.19.07-.28-.1-.09-.07-.18-.02-.28.04-.1.08-.2,0-.28,0-.05-.01-.09-.02-.13l-.03-.13c-.02-.09-.03-.18-.04-.26.12-.13.1-.22.04-.3-.05-.07-.16-.12-.21-.19-.04-.18-.31-.2-.21-.45-.04-.07-.05-.16-.08-.24-.03-.08-.08-.15-.18-.16-.07-.04-.04-.17-.04-.28,0-.11-.05-.17-.25-.07-.08-.02-.08-.13-.1-.22-.02-.08-.07-.15-.21-.08-.25.12-.2-.17-.31-.25-.1-.09-.21-.14-.31-.21-.46-.29-.88-.43-1.18-.55-.3-.1-.47-.18-.47-.27,0-.05.05-.09.16-.13.11-.03.27-.09.48-.09.42-.03,1.07.03,1.81.38.14.07.42-.02.45.24.07.05.17.07.26.11.09.04.17.1.19.21.17-.04.26.02.31.11.05.09.07.21.14.29.08.07.12.17.18.25.06.09.13.17.24.23.25.1.17.42.36.57-.05.28.06.47.3.65-.04.14,0,.26.05.37.03.05.06.11.1.17.03.06.05.12.06.18-.11.15-.11.27-.07.4.03.12.11.25.17.38.06.13.03.27.01.41,0,.07-.02.14-.03.2-.01.07-.02.14-.01.21-.08.27-.04.57-.16.84.01.15,0,.31-.05.45-.05.14-.14.27-.28.37-.02.16-.11.29-.19.41-.08.13-.19.24-.28.36-.03.08-.06.15-.11.21-.05.06-.1.12-.16.17l-.17.16c-.06.05-.12.1-.17.16-.1.13-.26.18-.41.24-.15.06-.28.15-.34.35-.26.21-.59.28-.87.45l-.48.12c-.16.04-.32.09-.47.16-.19-.12-.35-.12-.52-.08-.16.03-.32.11-.49.18-.17.04-.34.04-.51.02-.17-.02-.33-.08-.5-.12-.17-.01-.33-.06-.49-.1-.16-.04-.31-.12-.46-.18-.17-.01-.31-.13-.44-.22-.14-.09-.26-.2-.43-.23-.17-.03-.28-.16-.39-.28-.11-.12-.2-.25-.36-.31-.07-.04-.15-.08-.21-.12-.06-.05-.12-.1-.18-.16s-.1-.12-.15-.19c-.04-.07-.07-.15-.08-.23-.09-.12-.13-.28-.18-.43-.04-.15-.13-.27-.3-.35-.09-.12-.25-.21-.34-.34-.09-.13-.13-.28.02-.48-.09-.12-.08-.28-.07-.42,0-.15.02-.29-.09-.41.06-.08.09-.15.1-.22.01-.07,0-.13-.02-.2-.04-.13-.12-.27-.11-.4.03-.13.08-.26.1-.39.02-.13.04-.25,0-.39-.02-.07-.03-.14-.02-.2.02-.06.04-.12.07-.18.06-.12.13-.22.15-.35-.04-.14.06-.24.15-.33.09-.09.19-.17.15-.32.13-.2.2-.42.36-.57-.1-.2-.03-.29.08-.35.11-.05.26-.07.34-.13.09-.06.11-.18.15-.28.04-.1.12-.17.29-.12-.03-.17.04-.25.13-.28.1-.03.23-.02.32-.04.19-.04.22-.3.45-.24.04-.28.34-.04.43-.17.19.06.27-.1.41-.11.05-.04.11-.07.17-.09.06,0,.13,0,.19.02.12-.01.22-.03.33-.03.15,0,.29,0,.4.02.12.01.21.04.29.06.15.05.23.1.23.15Z"/>
</svg>