<?xml version="1.0" encoding="UTF-8"?>
<svg id="Calque_1" data-name="Calque 1" xmlns="http://www.w3.org/2000/svg" viewBox="0 0 100 86">
  <defs>
    <style>
      .cls-1 {
        fill: #4738de;
        stroke: #4738de;
        stroke-miterlimit: 10;
      }
    </style>
  </defs>
  <path class="cls-1" d="m50.13,37.12s-.1-.69-.14-2.01c-.05-1.32-.09-3.28-.14-5.81-.01-.84-.03-1.75-.04-2.72-.03-.97-.05-2-.04-3.09.13-1.09-.24-2.24-.04-3.44.06-1.21,0-2.47-.04-3.78-.05-1.32.08-2.69-.04-4.12-.25-1.43.28-2.9-.04-4.43,0-.19-.01-.38-.02-.58,0-.17,0-.35-.02-.53,0-.08,0-.16,0-.24v-.06s0-.03,0-.03c0-.01,0-.02-.01-.02h-.12c-.27,0-.54.02-.82.02-.4,0-.79.04-1.19.06-.4-.01-.81-.02-1.22.02-.41.04-.81.1-1.22.17-.2.04-.41.06-.61.11-.2.05-.41.09-.61.14-.41.1-.82.18-1.23.28-.42.04-.85.1-1.27.17l-.32.06c-.11.02-.21.05-.32.08-.21.06-.42.12-.63.18-.84.24-1.65.61-2.47.96-1.78.33-3.47,1.14-4.97,2.29-1.63.9-3.3,1.86-4.77,3.15-.19.15-.38.31-.57.46-.19.15-.38.3-.56.47-.37.33-.74.66-1.11.98-.36.34-.72.69-1.08,1.03-.19.17-.36.35-.53.53-.18.18-.36.36-.53.54-1.22,1.62-2.5,3.2-3.8,4.85-.23.47-.49.93-.74,1.39-.24.47-.5.93-.77,1.38-.24.47-.5.93-.76,1.4-.25.47-.49.95-.74,1.43-.48.97-.84,2-1.13,3.05-.07.26-.16.52-.23.79-.07.27-.14.53-.21.8-.07.27-.15.53-.23.79-.07.27-.15.53-.23.8-.52,2.16-.76,4.4-.9,6.67-.2,2.27-.19,4.61.36,6.89.39,2.3,1.02,4.56,1.7,6.85,1.02,2.16,1.93,4.36,3.06,6.51.15.26.32.51.48.77.16.26.32.51.49.77.16.26.34.51.51.76.17.25.35.5.52.76.36.5.74.98,1.12,1.46.4.47.82.92,1.25,1.36,1.64,1.85,3.59,3.41,5.55,4.96,1.98,1.53,4.13,2.85,6.43,3.74.29.11.57.22.86.34.29.1.58.21.86.32.29.11.57.23.85.34.29.1.58.21.86.31.29.1.57.22.86.31.29.09.58.18.87.27.29.08.58.18.88.25.3.07.59.13.89.19.29.09.58.19.87.26.3.07.59.13.89.18.3.05.59.12.89.15.3.03.6.06.9.09.3.03.6.06.9.08.3.01.6.03.9.04.3.02.6.04.89.05.3,0,.6.02.89.04,2.37.04,4.76.02,7.04-.49,2.29-.43,4.5-1.07,6.67-1.77.5-.29,1.01-.53,1.53-.75.51-.24,1.03-.45,1.55-.66.51-.23,1.02-.46,1.53-.68.5-.26.99-.52,1.46-.81,1.98-1.03,3.66-2.47,5.3-3.87.4-.36.79-.73,1.18-1.09.2-.18.4-.36.59-.54.19-.19.38-.37.57-.56.19-.19.38-.37.56-.56.18-.19.35-.39.53-.59.34-.4.69-.8.98-1.24,1.33-1.62,2.37-3.4,3.46-5.1l.16-.34.16-.34c.11-.23.22-.45.34-.67.11-.22.24-.44.35-.66.11-.22.22-.44.33-.67.11-.22.22-.44.33-.66.11-.22.2-.45.3-.68.1-.23.19-.45.27-.68.09-.23.17-.46.23-.7.15-.46.31-.92.46-1.38.13-.46.26-.92.4-1.38.14-.46.23-.92.35-1.38.06-.23.11-.46.17-.69.06-.23.09-.46.14-.69.15-.45.28-.9.36-1.35.07-.46.13-.91.18-1.37.01-.11.02-.23.03-.34v-.34c.02-.23.03-.46.04-.68,0-.23.02-.45.02-.68.01-.22,0-.45,0-.67v-.33s.01-.18.01-.18c0-.08,0-.16,0-.23,0-.01-.01,0-.02,0h-.03s-.06,0-.06,0h-.11s-.05.01-.05.01h-.03s-.01,0-.01,0h-.37c-.88.03-1.76.03-2.62-.06-1.72-.02-3.4-.14-5.03-.03-1.63.04-3.21-.4-4.74-.03-1.53.06-3.01-.28-4.43-.04-1.43.23-2.8-.03-4.12-.04-1.32-.01-2.58-.03-3.79-.04-2.32-.03-4.43-.05-6.31-.08-1.97-.03-3.7-.06-5.17-.08.01-.55.02-1.08.03-1.56.01-.42.02-.81.03-1.17.02-.72.04-1.33.06-1.82.04-.98.08-1.49.12-1.49s.08.51.12,1.49c.02.49.04,1.1.06,1.82.02.65.04,1.4.06,2.25.36,0,.75-.02,1.15-.03.49,0,1.01-.02,1.54-.03,1.08-.02,2.25-.03,3.5-.05,2.52-.03,5.39-.06,8.58-.1,1.32-.01,2.69-.2,4.12-.04,1.43,0,2.9-.15,4.43-.04,1.53-.25,3.11-.05,4.74-.03,1.63-.01,3.31.07,5.03-.03.86-.07,1.73-.06,2.62-.03h.33c.18.01.35.02.53.02.18,0,.37,0,.55,0h.27s.14,0,.14,0c.04,0,.11-.02.09.05-.01.37-.02.74-.02,1.11v.28s0,.22,0,.22v.35c-.23,1.83-.36,3.7-.59,5.63-.06.23-.11.47-.17.71-.06.23-.12.47-.18.71-.12.47-.2.96-.34,1.43-.12.48-.24.96-.37,1.44-.15.48-.3.95-.46,1.43-.9,1.81-1.59,3.74-2.52,5.62-.94,1.89-2.24,3.6-3.55,5.32-1.39,1.66-2.84,3.34-4.55,4.8-1.61,1.56-3.44,2.97-5.49,4.05-1.94,1.26-4.09,2.23-6.31,3.06-2.19.92-4.56,1.45-6.95,1.87-.59.13-1.2.18-1.81.24-.61.07-1.22.09-1.83.11-.31.01-.61.04-.92.04-.31,0-.61.01-.92.02-.31.01-.61.03-.92.05-.31,0-.62.03-.93.05-2.48-.03-4.97-.4-7.45-.91-2.46-.59-4.88-1.43-7.25-2.42-2.23-1.29-4.54-2.44-6.72-3.9-2.16-1.48-4.08-3.25-5.79-5.18-1.75-1.89-3.27-3.96-4.55-6.14-.17-.27-.33-.54-.49-.81-.16-.27-.32-.55-.45-.83-.14-.28-.28-.56-.42-.85l-.21-.42c-.07-.14-.13-.29-.19-.43-.51-1.15-.96-2.31-1.42-3.46-.46-1.15-.79-2.35-1.06-3.55-.06-.3-.12-.6-.19-.9-.06-.3-.13-.6-.18-.9-.05-.3-.1-.6-.16-.9-.06-.3-.13-.6-.17-.9-.42-2.39-.59-4.82-.35-7.18.06-1.18.21-2.36.41-3.51.08-.58.2-1.15.29-1.72.05-.29.08-.57.13-.86.05-.28.1-.57.13-.86.06-.28.11-.57.17-.85.06-.28.13-.56.2-.84.06-.28.13-.56.19-.84.06-.28.16-.55.24-.83.32-1.1.75-2.16,1.36-3.12.21-.52.43-1.03.69-1.53.26-.49.53-.98.8-1.46.29-.47.58-.94.85-1.41.28-.47.58-.93.83-1.41.09-.11.17-.21.26-.32l.26-.31c.17-.21.34-.42.5-.64.31-.43.65-.85.96-1.28.16-.21.32-.43.47-.64.17-.21.33-.41.5-.62.33-.41.66-.82,1.03-1.19.19-.18.37-.37.56-.55.18-.18.37-.37.56-.54.38-.35.76-.7,1.14-1.04.39-.33.78-.66,1.16-1,.19-.17.39-.33.58-.49.19-.16.39-.33.58-.49,1.53-1.33,3.3-2.26,4.97-3.22.41-.26.84-.48,1.26-.69.43-.22.87-.39,1.31-.56.87-.37,1.76-.64,2.59-1.06.88-.27,1.73-.59,2.6-.82.22-.06.43-.12.65-.19.11-.03.21-.06.32-.09l.33-.07c.43-.1.86-.19,1.29-.27.41-.18.83-.29,1.26-.38.21-.05.42-.09.64-.12.21-.04.43-.04.64-.06.43-.03.85-.05,1.27-.07.42-.02.84,0,1.25-.04.41-.02.82-.07,1.23-.08.21-.01.42-.03.62-.04.33-.02.67-.03,1-.05.17,0,.34-.01.51-.02h.03s.02,0,.02,0c0,0,0,0,0,.01v.06s0,.12,0,.12v.25c0,.33,0,.66,0,.99v.21s-.01.15-.01.15c0,.1-.01.19-.02.29-.02.19-.04.39-.08.58.26,1.53.04,3.01-.04,4.43-.08,1.42.11,2.8-.04,4.12.19,1.32-.1,2.58-.04,3.78-.12,1.21,0,2.35-.04,3.44.04,1.09.03,2.12-.04,3.09-.02.97-.03,1.87-.04,2.72-.04,2.53-.09,4.49-.14,5.81-.05,1.32-.09,2.01-.14,2.01Z"/>
  <path class="cls-1" d="m55.93,6.17c.1,0,.19,1.2.28,3.4.01.37.03.76.04,1.18.03.42.05.87.04,1.34-.13.47.24.97.04,1.5-.06.52,0,1.07.04,1.65.05.57-.08,1.17.04,1.79.25.62-.28,1.26.04,1.93.07.67.05,1.35.03,2.06-.19.71,0,1.44.03,2.19-.23.75-.13,1.52.03,2.31-.32.79-.27,1.6.03,2.42.01.83-.11,1.67.03,2.53.02.86.08,1.74.02,2.64.21.9.2,1.81.02,2.73.03.11.05.21.07.32v.04s.01,0,.01.01h.01s.02.03.02.03c.02.02.03.03.03.05.02,0,.03.01.06.04h.01s0,.01,0,.01h.04s.19.03.19.03c.13.02.26.03.39.05.96.13,1.93-.2,2.91-.02.98.01,1.98-.05,2.99-.02,1.01.09,2.03.2,3.07-.01,1.04-.06,2.08-.13,3.14,0,1.06-.24,2.12-.14,3.2,0,1.08-.04,2.17.13,3.26,0,1.1.04,2.2-.11,3.31,0,1.11.07,2.22.14,3.31,0,.55-.08,1.09-.06,1.64-.03.27.01.54.03.81.04.14,0,.27,0,.41,0h.2s.1,0,.1,0h.01c.06.06.18.08.25.08-.01-.05-.03-.1-.05-.14-.01-.02-.02-.04-.03-.06v-.02s-.02-.01-.02-.01h0s0,0,0,0v-.02c-.09-.35-.19-.7-.24-1.06-.06-.25-.11-.5-.16-.76-.06-.25-.11-.5-.16-.75-.06-.25-.11-.5-.19-.75-.08-.24-.16-.48-.27-.71-.09-.24-.16-.48-.26-.71-.09-.23-.18-.47-.26-.71-.16-.47-.34-.94-.47-1.42-.34-.4-.53-.85-.67-1.32-.14-.47-.28-.94-.53-1.36-.3-.93-.91-1.69-1.36-2.51-.26-.39-.49-.79-.71-1.2-.22-.41-.48-.79-.79-1.12-.24-.38-.55-.72-.83-1.07-.14-.17-.28-.35-.41-.52-.14-.17-.26-.35-.38-.54-.17-.14-.32-.3-.46-.47-.14-.17-.27-.34-.4-.51-.13-.18-.25-.35-.39-.52-.14-.17-.29-.31-.46-.45-.58-.62-1.19-1.18-1.76-1.76-.21-.37-.51-.65-.82-.9-.32-.23-.67-.44-.97-.68-.14-.13-.3-.24-.46-.35-.16-.11-.32-.21-.48-.32-.16-.11-.31-.22-.45-.34-.15-.11-.29-.24-.41-.38-.15-.11-.29-.23-.43-.34-.14-.12-.28-.23-.43-.33-.29-.21-.59-.41-.91-.55-.31-.17-.55-.42-.82-.65-.13-.11-.27-.21-.42-.29-.15-.07-.32-.11-.51-.11-.31-.13-.56-.34-.81-.53-.26-.18-.53-.34-.86-.37-.16-.02-.31-.06-.45-.12-.14-.06-.27-.12-.4-.2-.25-.15-.49-.33-.75-.45-.52-.23-1.02-.43-1.5-.64-.55-.2-1.06-.41-1.55-.58-.49-.16-.95-.33-1.39-.46-.44-.13-.84-.26-1.21-.37-.37-.1-.71-.19-1.02-.27-.15-.04-.3-.08-.43-.12-.14-.03-.26-.07-.38-.09-.23-.06-.43-.11-.59-.16-.31-.09-.48-.16-.47-.19,0-.04.22-.04.62-.01.2.02.45.04.75.07.3.03.64.1,1.02.16,1.54.27,3.78.79,6.48,1.85.27.11.56.18.85.28.14.05.29.1.43.17.14.07.27.16.39.26.28.14.59.25.89.37.3.13.6.28.87.49.18.03.34.08.5.14.16.07.3.16.45.26.29.2.57.42.87.62.31.19.6.4.91.61.15.1.31.2.47.31.16.1.32.2.49.29.18.08.34.18.5.29.16.11.3.24.45.37.15.13.3.26.45.38.16.12.32.24.49.35.26.32.55.59.87.85.31.27.65.51,1.01.73.51.68,1.26,1.14,1.86,1.79.11.2.24.38.38.55.14.17.28.34.44.5.16.16.32.31.49.46.16.16.33.32.49.47.16.16.31.33.46.51.15.18.28.37.42.56.27.38.55.75.84,1.13.25.4.55.77.81,1.17.27.4.56.79.78,1.22.6.78,1.12,1.63,1.45,2.59.25.44.49.88.69,1.36.2.47.4.94.58,1.42.23.46.43.95.58,1.45.08.25.16.5.24.75.09.25.15.5.24.75.09.25.16.51.22.76.06.26.1.52.15.79.05.26.11.52.18.78.07.26.15.52.27.76.09.36.18.73.23,1.1.11.67.23,1.35.35,2.03-.61,0-1.22,0-1.83.02-.3,0-.6-.01-.9-.02-.27,0-.54,0-.81-.01-.54,0-1.09,0-1.64.04-1.1-.25-2.2-.1-3.31,0-1.11.07-2.22.04-3.31,0-1.1.03-2.18.01-3.26,0-1.08.07-2.15-.11-3.2,0-1.06.11-2.1-.12-3.14,0-1.03.07-2.06.11-3.07-.01-1.01,0-2.01-.23-2.99-.01-.99.05-1.96.34-2.91-.02-.13.01-.26.02-.39.02h-.19s-.32,0-.32,0c-.47-.01-.92-.03-1.35-.05.02-.4.03-.77.03-1.14v-.28s0-.14,0-.14v-.06s0-.04,0-.04c0-.11-.02-.21-.04-.32.26-.93.01-1.84.02-2.73.05-.89.14-1.77.02-2.64-.12-.86.07-1.71.03-2.53-.15-.83.19-1.63.03-2.42.03-.79-.02-1.56.03-2.31-.35-.75,0-1.48.03-2.19.05-.71-.23-1.4.03-2.06-.26-.66-.04-1.31.03-1.93.08-.62-.11-1.22.04-1.79-.19-.57.1-1.12.04-1.65.12-.53,0-1.02.04-1.5-.04-.47-.03-.92.04-1.34.01-.42.03-.82.04-1.18.09-2.2.18-3.4.28-3.4Z"/>
</svg>