<?xml version="1.0" encoding="UTF-8"?>
<svg id="Calque_1" data-name="Calque 1" xmlns="http://www.w3.org/2000/svg" viewBox="0 0 100 86">
  <defs>
    <style>
      .cls-1 {
        fill: #4738de;
        stroke: #4738de;
        stroke-miterlimit: 10;
      }
    </style>
  </defs>
  <path class="cls-1" d="m50.05,36.32c0,.14-1.29.13-3.53.66-.19.04-.38.1-.58.15-.2.05-.4.1-.61.18-.21.07-.42.15-.64.22-.22.08-.44.16-.68.24-.26,0-.47.17-.69.32-.22.14-.44.3-.73.31-.13.04-.26.09-.39.15-.13.06-.25.13-.37.2-.12.07-.25.14-.37.22-.12.08-.24.17-.36.25-.12.09-.25.16-.38.23-.13.08-.26.15-.4.23-.27.15-.53.34-.75.57-.18.29-.47.44-.78.59-.3.15-.6.34-.74.69-.45.52-.96,1-1.45,1.54-.65.41-.93,1.15-1.33,1.8-.64.5-.95,1.26-1.15,2.06-.66.57-.96,1.4-.89,2.3-.24.8-.6,1.61-.58,2.51-.11.87-.15,1.76-.21,2.67.23.91.26,1.81.2,2.77.39.89.49,1.82.66,2.79.04.24.12.47.21.7.1.23.21.44.33.66.11.22.24.43.34.66.1.23.2.45.27.7.44.89,1.04,1.71,1.63,2.55.53.88,1.16,1.75,2.1,2.29.82.66,1.69,1.23,2.52,1.92,1.04.34,1.92.92,2.88,1.46,1.02.36,2.03.86,3.16.92,1.09.25,2.21.2,3.33.32,1.12.08,2.27.05,3.33-.32.53-.19,1.06-.3,1.6-.43.27-.05.53-.13.79-.21.27-.07.52-.17.77-.29.14-.02.27-.05.4-.09.13-.04.26-.09.38-.14.13-.05.25-.11.37-.17.12-.07.24-.14.35-.21l.35-.21.34-.22c.11-.07.23-.14.34-.21.11-.07.23-.14.35-.2.88-.59,1.84-1.11,2.52-1.92.74-.75,1.39-1.54,2.1-2.29.15-.53.46-.92.78-1.31.17-.19.32-.39.47-.59.07-.1.15-.2.21-.31.06-.11.12-.22.16-.34.61-.82.82-1.81,1.15-2.71.1-.48.28-.92.42-1.39.03-.11.07-.23.1-.34.03-.12.05-.23.07-.35.04-.24.08-.47.06-.71.04-.23.06-.47.09-.7,0-.23.02-.47.03-.7.01-.23,0-.46.02-.69.01-.23.04-.46.07-.68-.06-.23-.07-.45-.08-.68-.01-.22,0-.45,0-.67.01-.23,0-.45-.01-.67-.02-.22-.05-.44-.12-.65-.13-.87-.37-1.7-.58-2.51,0-.22-.02-.44-.07-.64-.06-.2-.14-.4-.23-.58-.08-.19-.19-.37-.3-.54-.11-.18-.2-.36-.3-.53-.17-.37-.38-.7-.61-1.03-.21-.33-.42-.65-.54-1.03-.41-.64-.75-1.33-1.33-1.8-.25-.26-.42-.59-.62-.9-.2-.3-.45-.55-.83-.64-.28-.2-.48-.48-.71-.73-.23-.24-.46-.48-.81-.55-.33-.08-.58-.27-.82-.47-.12-.1-.23-.2-.35-.31-.11-.1-.24-.19-.36-.27-.13-.08-.25-.15-.38-.23-.13-.07-.25-.14-.38-.21-.13-.07-.25-.14-.37-.2-.12-.07-.25-.12-.37-.18-1.1-.54-2.13-.91-3.05-1.18-.23-.06-.45-.12-.67-.18-.21-.06-.42-.1-.62-.14-.4-.1-.76-.15-1.09-.21-.66-.11-1.16-.18-1.51-.22-.34-.05-.52-.09-.52-.13,0-.05.22-.08.65-.12.22-.02.48-.02.8-.02.16,0,.33,0,.52.01.18.01.38.03.59.04.83.08,1.86.22,3.03.55,1.17.32,2.48.82,3.85,1.57.14.08.28.14.43.21.14.07.29.14.44.21.3.14.57.34.79.61.28.19.57.38.86.58.29.2.57.43.8.72.72.29,1.11.99,1.6,1.59.53.57.93,1.27,1.49,1.88.29.3.51.66.69,1.05.2.38.36.77.61,1.13.06.21.12.43.19.63.08.21.16.41.24.61.08.2.18.4.28.61.09.2.2.41.31.61.04.23.08.45.14.67.06.22.14.44.2.66.07.22.14.45.21.67.06.23.11.46.15.69-.11.98.18,1.9.29,2.89.1.99-.08,2-.17,3.02-.2,1.01-.31,2.05-.67,3.06-.2,1.05-.58,2.08-1.22,2.99-.43,1.01-1.08,1.92-1.75,2.82-.6.96-1.45,1.73-2.28,2.53-.41.41-.89.73-1.38,1.05-.24.17-.48.32-.71.5-.23.18-.46.36-.67.58-.98.66-2.07,1.13-3.16,1.62-1.13.41-2.29.71-3.47,1.02-1.24-.05-2.42.24-3.66.35-1.24.08-2.48-.08-3.66-.35-1.2-.2-2.37-.56-3.47-1.02-1.15-.37-2.12-1.1-3.16-1.62-.26-.13-.52-.28-.75-.46-.23-.18-.47-.35-.68-.55-.44-.38-.86-.78-1.32-1.12-.9-.72-1.71-1.54-2.28-2.53-.34-.45-.61-.94-.87-1.43-.14-.24-.26-.48-.41-.72-.07-.12-.15-.23-.23-.34-.08-.11-.16-.22-.25-.33-.14-.24-.29-.46-.43-.7-.14-.24-.29-.47-.41-.71-.11-.25-.22-.5-.29-.76-.06-.26-.1-.54-.09-.82-.2-.49-.3-1.01-.37-1.53-.02-.13-.04-.26-.06-.38-.02-.13-.03-.26-.06-.38-.04-.26-.11-.5-.18-.75.04-.27.05-.52.03-.77,0-.25-.03-.5-.06-.75-.04-.25-.06-.5-.09-.75-.03-.25-.05-.5-.04-.74.06-.99.26-1.94.29-2.89,0-.24.04-.48.08-.71.05-.23.12-.46.19-.68.06-.22.15-.44.22-.66.08-.22.14-.44.2-.66.03-.23.1-.45.18-.66.09-.21.2-.41.3-.6.1-.2.22-.39.31-.59.1-.2.17-.4.23-.62.42-.76.79-1.53,1.29-2.18.03-.23.12-.42.22-.6.11-.18.23-.34.38-.48.29-.28.62-.53.89-.81.54-.55.86-1.31,1.6-1.59.18-.35.44-.6.74-.79.3-.19.62-.35.92-.5.3-.16.55-.38.82-.57.13-.1.26-.19.4-.27.14-.08.29-.14.44-.18.11-.12.23-.22.37-.29.13-.07.28-.12.42-.17.14-.05.29-.09.42-.14.14-.05.27-.1.4-.18.57-.12,1.03-.43,1.52-.57.24-.1.47-.19.7-.26.24-.06.47-.1.7-.13.22-.06.44-.1.65-.14.21-.04.41-.08.61-.11,2.36-.35,3.65-.13,3.65-.05Z"/>
  <path class="cls-1" d="m63.23,24.65c0,.06-.56.11-1.64.16-1.08.05-2.68.1-4.74.15-.69.02-1.43.03-2.22.05-.79.03-1.63.06-2.52.05-.89-.14-1.83.27-2.81.05-.98-.06-2.01,0-3.09.04-1.07.05-2.19-.09-3.36.04-1.16.28-2.37-.31-3.62.04-.62.04-1.26.05-1.9.05h-.22s-.07,0-.1,0c-.1.05-.2.11-.3.16-.28.16-.57.31-.85.48-1.24.48-2.26,1.41-3.34,2.27-1.26.62-2.3,1.64-3.22,2.77-1.29.75-2.29,1.92-2.97,3.31-.93,1.19-1.93,2.41-2.58,3.86-.77,1.38-1.42,2.86-2.09,4.36-.4,1.61-.92,3.18-1.54,4.78-.18,1.71-.61,3.38-1,5.11-.39,1.74-.17,3.56-.46,5.36-.05.91-.04,1.83-.04,2.75.01.46.03.91.04,1.37.01.46.06.92.08,1.38.05,1.84.27,3.74,1.06,5.46.62,1.77,1.48,3.42,2.43,5.06.15.18.33.35.48.52.16.18.31.36.47.53.16.17.32.35.48.52l.23.27c.08.09.16.17.25.26.16.17.32.35.48.52l.12.13.13.13.25.25c.17.17.34.34.51.51l.54.49c.38.3.79.56,1.18.85.19.15.41.27.61.41l.62.4.64.36c.22.12.43.24.66.34.45.2.9.42,1.38.56,1.83.81,3.81,1.25,5.77,1.8,1.97.52,4,.89,6.03.92,2.03.01,4.03.34,6.03.29,2,.27,3.98-.13,5.93-.18,1.95-.17,3.9-.22,5.75-.69,1.87-.38,3.68-.87,5.47-1.34.4-.25.82-.44,1.25-.6.42-.18.85-.33,1.28-.47.42-.16.85-.3,1.27-.48.41-.19.82-.37,1.2-.61.2-.1.4-.2.6-.3.2-.1.4-.21.58-.33.19-.12.37-.24.55-.37.18-.12.36-.25.53-.39.69-.54,1.34-1.12,1.97-1.7.29-.32.61-.61.89-.92l.44-.46c.15-.15.28-.32.42-.48.14-.16.27-.33.41-.49.13-.16.25-.34.37-.52.12-.18.23-.35.34-.53.11-.18.19-.37.28-.56.11-.18.21-.36.32-.54.11-.18.18-.37.27-.56.17-.38.35-.75.49-1.14.31-.76.56-1.54.86-2.29.05-.41.14-.8.25-1.19.09-.39.18-.78.28-1.17l.07-.29.06-.29c.04-.2.07-.39.11-.59.03-.2.06-.39.08-.59.02-.2.02-.4.02-.59.03-.39.07-.78.09-1.17,0-.39.02-.78.03-1.17.02-.38,0-.78,0-1.16,0-.39,0-.77,0-1.16.12-.77.11-1.53.03-2.28-.07-.75-.21-1.48-.3-2.2-.14-1.46-.53-2.83-.61-4.23-.03-.17-.06-.34-.08-.51-.03-.17-.06-.34-.09-.51-.06-.34-.12-.67-.19-1-.15-.66-.31-1.31-.56-1.91-.2-.62-.31-1.26-.45-1.89-.07-.31-.17-.61-.29-.9-.06-.15-.13-.29-.21-.42-.08-.13-.18-.26-.28-.38-.14-.28-.24-.56-.34-.85-.11-.28-.2-.57-.3-.85-.1-.28-.21-.55-.35-.81-.14-.26-.29-.51-.48-.73-.39-.44-.64-.94-.9-1.43-.13-.24-.24-.5-.36-.73-.13-.24-.26-.47-.4-.7-.14-.23-.29-.44-.44-.65-.15-.21-.29-.43-.44-.63-.15-.2-.3-.41-.45-.61-.07-.1-.15-.2-.22-.3-.08-.1-.15-.19-.23-.29-.17-.21-.34-.42-.51-.63-.17-.2-.34-.4-.51-.6-.08-.1-.17-.2-.25-.29-.09-.09-.17-.19-.26-.28-.17-.18-.34-.37-.5-.54-.34-.35-.67-.69-1-1.01-.34-.31-.65-.62-.97-.9-1.27-1.14-2.43-2.02-3.39-2.71-1.93-1.36-3.03-2-2.99-2.08.02-.04.39.11,1.07.45.67.35,1.67.88,2.89,1.69,1.22.81,2.69,1.87,4.25,3.32.79.71,1.58,1.54,2.39,2.44.8.91,1.6,1.93,2.38,3.05.15.23.32.45.49.67.17.22.33.46.49.69.33.47.61.98.82,1.54.54,1.04,1.24,2.08,1.59,3.31.09.13.18.27.26.41.08.14.14.29.21.44.13.3.25.6.34.91.18.63.35,1.28.52,1.93.21.64.35,1.31.52,1.98.08.34.15.68.24,1.02.09.34.18.68.27,1.03.45,1.37.41,2.86.69,4.33-.01.76.03,1.51.09,2.27.07.76.14,1.53.26,2.31-.03.39-.05.79-.05,1.18,0,.4.02.79.02,1.2,0,.4.01.81.02,1.22,0,.41-.03.82-.06,1.23-.05.2-.09.41-.13.61-.05.2-.09.41-.12.62-.04.2-.07.41-.1.62l-.04.31-.05.31c-.07.42-.12.84-.18,1.26-.08.42-.16.85-.24,1.27-.39,1.7-1.19,3.31-2.04,4.9-.95,1.54-2,3.08-3.39,4.34-1.26,1.39-2.81,2.57-4.54,3.37-1.63,1.01-3.44,1.72-5.29,2.32-1.82.71-3.76,1.06-5.7,1.43-1.94.4-3.96.3-5.93.73-2,.18-4.03.16-6.07.2-2.04-.05-4.1-.17-6.18-.29-2.05-.48-4.14-.6-6.25-.95-2.1-.38-4.14-1.04-6.08-1.9-.5-.19-.97-.43-1.45-.64-.24-.11-.47-.24-.71-.36l-.7-.38-.68-.41c-.22-.14-.45-.27-.67-.43-.43-.31-.87-.59-1.28-.94-.21-.15-.42-.31-.63-.47-.2-.17-.4-.35-.59-.53l-.29-.27-.14-.13-.14-.14-.54-.58c-.09-.1-.18-.19-.26-.29l-.25-.3-.5-.6c-.16-.2-.32-.41-.48-.62-.16-.21-.33-.4-.48-.61-.62-.83-1.13-1.75-1.53-2.69-.1-.23-.2-.47-.3-.71-.1-.23-.18-.48-.27-.71-.09-.24-.18-.47-.28-.71-.08-.24-.17-.48-.26-.71-.68-1.9-1.08-3.88-1.1-5.83-.03-.48-.07-.97-.06-1.45,0-.48.02-.96.03-1.44.04-.95.05-1.89-.02-2.83.02-1.87-.14-3.76.51-5.52.16-1.83.79-3.53,1.07-5.28.72-1.63,1-3.36,1.66-4.96.69-1.57,1.52-3.04,2.23-4.53.71-1.51,1.81-2.73,2.75-4,.21-.34.46-.64.72-.94.26-.3.54-.56.82-.84.56-.54,1.12-1.05,1.61-1.64,1.11-1.02,2.2-2.01,3.39-2.82.46-.59,1.04-.99,1.65-1.34.31-.17.62-.32.93-.48.31-.15.62-.3.91-.46.29-.17.58-.33.87-.51l.21-.14.34-.21h.02s.02-.01.02-.01h.05s.1,0,.1,0h.2s.27-.02.27-.02c.64-.04,1.28-.04,1.9.11,1.25-.3,2.45-.04,3.62.04,1.16.09,2.28-.12,3.36.04,1.08-.21,2.11.12,3.09.04.98.14,1.92,0,2.81.05.89-.05,1.73-.03,2.52.05.79.02,1.53.03,2.22.05,2.06.05,3.66.1,4.74.15,1.08.05,1.64.11,1.64.16Z"/>
  <path class="cls-1" d="m37.63,19.11c0-.11,1.3-.22,3.67-.31.4-.01.82-.03,1.27-.05.46-.03.94-.06,1.45-.05.51.14,1.05-.27,1.61-.05.57.06,1.16,0,1.78-.04.62-.05,1.26.09,1.93-.04.67-.28,1.36.31,2.08-.04.72-.08,1.46-.06,2.22-.04.76.21,1.55,0,2.36-.04.81.26,1.64.15,2.49-.03.85.35,1.72.3,2.61-.03h.14s.12.01.12.01l.16.02h.08s0,0,0,0h0s0-.02,0-.02c0,0-.01-.02-.02-.03-.03-.07-.06-.17-.09-.25v-.04s-.02-.01-.03-.04c-.01-.09-.03-.18-.04-.28,0-.55.09-1.09.23-1.59.14-.5.34-.99.59-1.44.24-1.03.81-1.93,1.58-2.64.4-.99,1.16-1.74,1.95-2.44.2-.17.38-.37.55-.57.17-.2.34-.41.5-.62.33-.42.68-.83,1.14-1.14.39-.37.77-.76,1.16-1.14.39-.38.79-.76,1.21-1.11.45-.32.89-.66,1.33-1.01.28-.23.26-.22.32-.3,0-.01.02-.03.02-.04,0,0,0-.01,0-.02,0,0-.02-.02-.02-.02-.04-.03-.08-.06-.13-.07-.02-.02-.04-.03-.06-.04,0,0,0,0-.02-.02l-.06-.06s-.08-.08-.12-.11c-.16-.15-.33-.27-.49-.37-.34-.19-.63-.28-1-.3-.35.19-.67.39-1.08.67-.4.27-.86.6-1.33.93-.82.82-1.83,1.53-2.88,2.32-.28.16-.58.31-.88.46-.31.14-.62.27-.95.37-.65.21-1.36.3-2.04.22l-.28-.03s-.06,0-.1,0l-.09-.02-.13-.04-.45-.13-.45-.12-.44-.14c-.3-.09-.6-.17-.89-.26-.3-.09-.6-.15-.9-.24-.61-.14-1.18-.41-1.71-.72-.27-.16-.53-.31-.79-.48-.26-.16-.52-.33-.79-.48-.44-.45-.94-.79-1.43-1.17-.25-.19-.49-.38-.72-.62l-.08-.09s0,0-.01,0h-.01s-.04-.04-.04-.04l-.08-.06s-.1-.08-.15-.12c-.05-.04-.1-.08-.14-.12-.41-.27-.79-.51-1.12-.55-.17-.03-.33-.02-.51.05-.18.07-.37.17-.55.33-.12.09-.25.18-.38.28l-.19.16-.1.08-.02.02h0s0,.01,0,.01c0,0,0,0,0,0h0v.02s-.04.03-.04.03c-.04.04-.07.08-.11.12-.07.08-.15.15-.22.23-.15.15-.3.28-.46.42-.31.26-.64.49-.98.69-.35.5-.87.79-1.4,1.01-.26.12-.54.2-.8.31-.26.1-.53.2-.77.33-1.08.29-2.05.81-3.11,1.04-.26.08-.52.13-.78.18l-.25.05h-.16s-.11,0-.11,0c-.14,0-.29,0-.43-.02-.57-.05-1.12-.15-1.69-.23-1.07-.33-2.12-.77-2.84-1.52-.94-.48-1.4-1.44-2.15-1.94-.67-.6-1.33-1.12-1.96-1.29-.29-.22-.66-.23-.96-.08-.31.14-.55.39-.8.64-.07.06-.13.12-.18.19-.03.03-.06.07-.08.1-.01.02-.02.03-.03.05-.03.06-.05.12-.07.18v.04s-.02.01-.02.02h.02s.05.05.06.08c.02.02.03.05.05.08,0,.02.01.03.02.05h0s.02.04.02.04l.05.06c.3.27.58.57.86.85.28.28.57.54.9.75.3.25.5.58.73.89.23.3.47.58.88.68.29.22.48.53.69.82.1.14.21.28.34.4.12.12.26.23.42.3.65.31.88.99,1.29,1.47.2.24.39.48.58.72.18.24.36.47.53.7.77,1.04,1.38,2.04,1.82,2.95.44.91.7,1.76.8,2.46.1.71.02,1.27-.12,1.62-.13.35-.3.48-.33.45-.04-.03.07-.22.11-.63.05-.41,0-1.03-.25-1.79-.13-.38-.3-.8-.53-1.24-.23-.44-.51-.91-.83-1.41-.65-.98-1.5-2.05-2.53-3.18-.41-.45-.99-.78-1.32-1.38-.11-.12-.23-.23-.36-.35-.13-.11-.26-.22-.39-.33-.26-.22-.51-.47-.72-.76-.35-.14-.62-.38-.87-.66-.25-.27-.48-.56-.76-.83-.28-.25-.56-.52-.85-.78-.28-.27-.59-.52-.93-.74l-.07-.04-.03-.02-.05-.04c-.06-.05-.13-.1-.19-.16-.13-.11-.25-.22-.38-.33-.12-.12-.24-.23-.36-.35l-.09-.09s0-.02,0-.03v-.03s.04-.06.04-.06l.12-.22c.15-.29.34-.58.55-.86l.16-.2.12-.14c.08-.1.16-.19.23-.29.42-.29.86-.56,1.37-.75.51-.19,1.09-.27,1.66-.22.53.21,1,.45,1.44.71.43.26.84.55,1.19.87.53.83,1.32,1.35,2.1,1.83.39.24.75.49,1.13.72.38.22.78.41,1.2.49.41.14.85.19,1.29.18.11,0,.22,0,.33-.02.16-.01.06,0,.24-.04.24-.06.48-.11.72-.16.93-.37,1.85-.71,2.83-.98.89-.48,1.81-.92,2.64-1.51.26-.23.53-.45.79-.68.13-.11.26-.22.38-.34.06-.06.12-.11.18-.17.03-.03.06-.06.08-.08l.02-.02.03-.04.09-.1.29-.21.23-.16c.15-.11.32-.22.49-.33.26-.18.59-.34.95-.44.36-.11.79-.13,1.17-.07.2.02.38.08.56.13.09.03.17.06.26.09.09.03.17.06.25.1.16.07.32.14.47.21.15.07.3.13.46.2l.2.14.19.15.21.17c.05.04.09.08.14.14l.06.07c.16.18.35.36.54.54.39.36.82.69,1.29.97.89.63,1.88,1.17,2.95,1.5.23.18.49.29.75.41.26.12.54.19.81.26.14.03.28.07.42.09l.43.06.43.05c.09.01.1.01.12,0,0,0,0,0,.02,0h.05s.1-.01.1-.01c.52-.03,1.01-.1,1.5-.23.48-.13.96-.31,1.42-.57.89-.56,1.71-1.3,2.58-2.09.4-.43.87-.82,1.41-1.18.54-.36,1.19-.69,1.94-.86.38-.09.8-.08,1.18.02.39.1.74.27,1.04.48.3.21.56.45.79.7.06.06.11.13.17.19l.08.1s.08.09.11.14c.16.2.31.41.45.62.13.22.24.43.36.66l.04.08.02.04s-.02.02-.02.03l-.13.13-.26.27c-.33.33-.79.79-.93.9-.42.35-.83.7-1.28,1.01-.4.36-.83.68-1.25,1.01-.41.34-.79.71-1.08,1.16-.7.78-1.18,1.73-2.14,2.22-.59.82-1.45,1.41-1.88,2.29-.81.62-1.09,1.58-1.48,2.38-.23.39-.42.79-.56,1.19-.14.4-.21.82-.16,1.2,0,.06.02.12.03.18,0,.05.01.14.03.2l.04.2c-.14.38-.23.65-.27.81,0,.02,0,.05-.01.06,0,.01,0,.02,0,.03,0,0,0,0,0,.01,0,0-.01.01-.02.02l-.14.18c-.1.12-.2.22-.29.33-.21,0-.41-.01-.61-.01h-.3s-.15,0-.15,0h-.12c-.89.17-1.76-.21-2.61-.03-.85-.04-1.68.03-2.49-.03-.81.39-1.59,0-2.36-.03-.76-.06-1.51.26-2.22-.04-.72.3-1.41.04-2.08-.04-.67-.09-1.31.13-1.93-.04-.62.21-1.21-.12-1.78-.04-.57-.14-1.1,0-1.61-.05-.51.05-.99.03-1.45-.05-.45-.02-.88-.03-1.28-.05-2.37-.1-3.67-.2-3.67-.31Z"/>
  <path class="cls-1" d="m36.85,19.5c.11,0,.21.7.31,1.97.01.21.03.44.05.69.03.24.06.5.05.78-.07.14,0,.28.05.42.03.07.05.15.06.22,0,.02,0,.04,0,.06,0,0,0,.02-.01.03,0,.02-.03.04-.06.07-.06.17-.02.35.03.46.02,0,.04,0,.07-.02.11-.03.18,0,.27.01.04,0,.09.01.14,0,.02,0,.05,0,.07-.02.02,0,.08-.02.13-.04.36-.28.73.31,1.12-.04.39-.08.78-.06,1.19-.04.41.21.83,0,1.27-.03.43.26.88.15,1.34-.03.46.36.93.3,1.4-.03.48-.01.97.13,1.47-.03.5-.02,1.01-.09,1.53-.03.52-.24,1.05-.23,1.58-.03.54-.25,1.08-.15,1.64-.02.56.14,1.12-.22,1.69-.02.57.02,1.15-.06,1.74-.02.59.1,1.18.22,1.78-.02.6-.06,1.21-.15,1.82-.01.61-.27,1.23-.15,1.86,0,.63-.04,1.26.15,1.89,0,.16.01.32,0,.48,0l.24-.02h.12s.06-.01.06-.01h0s.04-.04.14.02h0s.08-.06.09-.13h0s0-.07,0-.07v-.12c0-.08,0-.16-.01-.24-.01-.16-.04-.32-.08-.48-.17-.63.07-1.27,0-1.89.02-.06.04-.11.05-.17,0-.03.01-.06.02-.08v-.04s.01-.03.01-.03c.01-.03.01-.06,0-.08-.01-.05-.06-.07-.08-.08-.05.02-.07.03-.08,0-.03,0-.05,0-.07-.01h0s-.06,0-.06,0h-.11s-.23-.03-.23-.03c-.3-.02-.61-.03-.91.04-.6.05-1.19.1-1.78-.01-.59.39-1.17-.1-1.73-.02-.57-.17-1.13.02-1.69-.02-.55.07-1.1-.18-1.64-.02-.54-.03-1.07.13-1.58-.03-.52.19-1.03-.16-1.53-.03-.5,0-.99.01-1.47-.03-.48-.31-.95-.05-1.4-.03-.46-.03-.9.17-1.34-.03-.43-.03-.86-.16-1.27-.04-.41.05-.81-.44-1.19-.04-.39.07-.76-.31-1.12-.04-.36.25-.71-.03-1.04-.04-.33-.01-.65-.03-.95-.04-2.74-.13-4.3-.28-4.3-.45,0-.18,1.94-.35,5.26-.49.33-.02.68-.23,1.04-.04.36,0,.73-.16,1.12-.04.39-.28.78-.05,1.19-.04.41-.01.83.08,1.27-.04.43-.16.88.08,1.34-.03.46.17.92.13,1.4-.03.48.17.97-.03,1.47-.03.5.26,1.01.08,1.53-.03.52-.1,1.05.04,1.58-.02.54.05,1.08-.07,1.64-.02.55-.12,1.12-.17,1.69-.02.57-.08,1.15-.02,1.73-.02.58-.1,1.18.01,1.78-.01.3-.03.6.04.91.08.07,0,.15.02.23.02.04,0,.08,0,.11,0h.16c.27-.01.54-.05.86-.12.32-.01.64-.01.96,0,0,.42-.01.84-.02,1.27v.81s.02.17.02.17c-.04.62-.08,1.25,0,1.89-.07.16-.11.32-.14.48-.01.08-.02.16-.02.24v.12s0,.17,0,.17c.02.55.09,1.16.15,1.82h0c-.57.04-1.2.05-1.81.05h-.18s-.12,0-.12,0h-.24s-.48-.04-.48-.04c-.63.03-1.26.01-1.89,0-.62.08-1.24-.12-1.86,0-.61.12-1.22-.13-1.82-.01-.6.08-1.19.13-1.78-.01-.59,0-1.16-.26-1.74-.02-.57.06-1.13.38-1.69-.02-.55.1-1.1-.19-1.64-.02-.54-.29-1.07-.01-1.58-.02-.52-.06-1.03-.15-1.53-.03-.5.14-.99-.08-1.47-.03-.48.17-.95-.22-1.4-.03-.46-.04-.9.03-1.34-.03-.43.39-.86,0-1.27-.04-.41-.06-.81.26-1.19-.04-.39.3-.76.04-1.12-.04-.39-.09-1.13.12-1.5-.04-.07.02-.14.04-.2.05-.05-.18-.01-.45.03-.69.04-.24.09-.45.06-.64.02-.06.03-.11.04-.17,0-.03,0-.05.01-.08v-.06c.01-.07.01-.15,0-.22-.01-.14-.03-.28-.02-.42-.05-.27-.03-.53.05-.78.02-.25.03-.47.05-.69.1-1.28.2-1.97.31-1.97Z"/>
  <g>
    <path class="cls-1" d="m56.1,47.09c0,.11-.37.21-1.04.31-.11.02-.23.03-.36.05-.13.03-.27.06-.41.05-.14-.14-.3.27-.46.04-.16-.06-.33,0-.5.04-.17.05-.36-.09-.55.04-.19.28-.39-.31-.59.04-.2.08-.41.06-.63.04-.22-.22-.44,0-.67.04-.11-.13-.23-.17-.35-.15-.06.01-.12.03-.17.06-.05.04-.1.08-.15.13-.11-.17-.23-.25-.34-.22-.11.03-.21.14-.28.32-.2.06-.46-.02-.61.22-.05.03-.1.05-.14.08-.05.03-.09.07-.14.1-.09.06-.19.11-.3.15-.07.32-.23.44-.55.44,0,.18-.06.29-.15.36-.09.08-.21.14-.35.19-.14.05-.17.2-.21.33-.04.13-.07.27-.23.32-.08.1-.13.23-.19.36-.03.06-.06.12-.09.18-.03.06-.06.13-.1.18-.22.2-.44.44-.32.79-.02.15-.03.3-.06.44-.03.14-.08.28-.19.41.19.36.02.61-.19.89,0,.31-.25.59-.13.93-.03.16-.02.32-.01.48,0,.08,0,.16,0,.24,0,.08-.02.16-.05.24-.09.32-.19.65,0,.94.17.29-.03.61.07.9-.11.17-.05.31.01.45.07.14.15.27.15.42.05.14.05.29.07.44.03.14.07.28.18.39.06.13.15.25.21.37.06.12.09.26.11.4.24.03.28.15.29.3.01.15,0,.31.11.4,0,.08.02.15.06.21.04.05.08.1.13.15.1.09.2.17.27.27.11.07.17.19.23.3.07.11.15.2.29.22.08.1.2.13.3.18.11.05.2.12.26.23.15-.04.22.05.3.14.08.08.17.17.29.14.1.05.21.05.31.08.1.02.2.06.3.08.09.16.2.18.3.16.12-.03.24-.1.36-.11.24.03.48-.17.71.03.23.02.45.16.67.04.22-.05.43.44.63.04.2-.07.4.31.59.04.19-.25.37.03.55.04.18.01.34.03.5.04,1.44.13,2.27.29,2.27.45,0,.18-1.02.35-2.77.49-.17.01-.36.23-.55.04-.19,0-.39.16-.59.04-.2.28-.41.05-.63.04-.22.01-.44-.08-.67.04-.23.16-.46-.08-.71.03-.12-.09-.24-.12-.37-.11-.14,0-.29.04-.45.11-.14-.09-.28-.12-.44-.12-.15,0-.32.02-.47-.04-.11-.18-.24-.25-.4-.28-.15-.04-.32-.05-.49-.08-.17-.03-.3-.13-.43-.23-.13-.1-.25-.21-.4-.29-.11-.13-.25-.22-.38-.32-.13-.1-.26-.21-.36-.35-.17-.08-.29-.19-.41-.32-.06-.06-.11-.13-.15-.21-.04-.08-.06-.16-.08-.25-.13-.12-.23-.26-.31-.41-.08-.15-.14-.31-.22-.46-.14-.13-.19-.29-.25-.45-.06-.16-.11-.33-.18-.49-.08-.16-.08-.35-.09-.52,0-.18-.04-.35-.23-.48-.07-.17-.09-.34-.11-.52-.02-.18-.05-.35-.1-.53,0-.36-.01-.72-.1-1.08.26-.38.1-.72,0-1.08-.02-.09-.03-.18-.03-.27,0-.09,0-.18.02-.27.02-.18.06-.35.09-.53,0-.36.09-.71.15-1.05,0-.36.26-.66.24-1.02-.01-.18.07-.34.15-.5.09-.15.17-.3.17-.49.04-.35.13-.69.41-.94.04-.08.09-.15.14-.21.06-.06.12-.13.18-.19.11-.13.19-.27.18-.48.07-.15.07-.35.15-.51.07-.16.19-.29.45-.29.07-.16.22-.25.36-.35.15-.09.28-.18.34-.35.22,0,.35-.09.45-.21.1-.13.21-.26.34-.35.15-.07.31-.1.45-.16.07-.03.14-.06.21-.1.07-.04.13-.08.19-.14.24-.25.6-.12.87-.23.13-.11.29-.08.43-.04.15.03.29.08.42-.02.07,0,.14,0,.2,0,.06,0,.12,0,.18,0,.12,0,.23,0,.35.03.23-.39.45,0,.67.04.22.06.43-.26.63.04.2-.3.4-.04.59.04.19.09.37-.13.55.04.18-.21.34.12.5.04.16.14.31,0,.46.04.14-.05.28-.03.41.05.13.02.25.03.36.05.67.1,1.04.2,1.04.31Z"/>
    <path class="cls-1" d="m40.93,52.77c0-.11.16-.21.46-.31.05-.02.1-.03.16-.05.06-.03.12-.06.18-.05.06.14.13-.27.2-.05.07.07.14,0,.22-.04.08-.05.16.09.24-.04.08-.28.17.31.26-.04.09-.08.18-.06.28-.04.1.22.19,0,.29-.04.1.26.21.15.31-.03.11.36.22.3.33-.03.11-.01.23.13.34-.03.12-.02.23-.09.36-.03.12-.24.24-.23.37-.03.12-.25.25-.15.38-.02.13.14.26-.22.39-.02.13.02.27-.06.4-.02.14.1.27.22.42-.01.14-.06.28-.15.42-.01.14-.27.29-.15.43,0,.15-.04.29.15.44,0,.15.04.3-.12.45,0,.15.08.3.16.45,0,.15-.17.3.07.44,0,.15.26.29-.08.43,0,.14-.03.29.15.42.01.14-.05.28-.1.41.01.14-.39.27.1.4.02.13.17.26-.03.39.02.13-.07.26.18.38.02.13.03.25-.13.37.03.12-.2.24.16.36.03.12,0,.23-.01.34.03.11.31.22.05.33.03.11.03.21-.17.31.03.1.03.2.16.29.04.1-.04.19.45.28.04.09-.07.18.31.26.04.08-.25.16.03.24.04.08.02.15.03.22.04.64.13,1,.29,1,.45,0,.18-.45.35-1.23.5-.08.01-.16.23-.24.04-.08,0-.17.16-.26.04-.09.28-.18.05-.28.04-.1.01-.19-.08-.29.04-.1.17-.2-.08-.31.03-.11-.17-.22-.13-.33.03-.11-.17-.23.04-.34.03-.12-.26-.24-.08-.36.03-.12.1-.24-.04-.37.03-.13-.05-.25.07-.38.02-.13.12-.26.17-.39.02-.13.09-.27.02-.4.02-.14.1-.27-.01-.41.01-.14.05-.28-.28-.42.01-.14.04-.29-.05-.43,0-.14-.04-.29-.07-.44,0-.15-.29-.3-.11-.45,0-.15.08-.3.04-.45,0-.15.03-.29.01-.44,0-.15.08-.29-.12-.43,0-.14.12-.28-.13-.42-.01-.14.08-.28.13-.42-.01-.14,0-.27-.26-.4-.02-.13.06-.26.38-.39-.02-.13.1-.26-.19-.38-.02-.13-.29-.25-.02-.37-.03-.12-.06-.24-.15-.36-.03-.12.14-.23-.08-.34-.03-.11.17-.22-.22-.33-.03-.11-.04-.21.03-.31-.03-.1.39-.2,0-.29-.04-.1-.06-.19.26-.28-.04-.09.3-.18.04-.26-.04-.08-.09-.16.12-.24-.04-.08.21-.15-.12-.22-.04-.07-.14-.14,0-.2-.05-.06.05-.12.03-.18-.05-.06-.02-.11-.03-.16-.05-.3-.1-.46-.2-.46-.31Z"/>
    <path class="cls-1" d="m40.93,57.31c0-.11.16-.21.46-.31.05-.02.1-.03.16-.05.06-.03.12-.06.18-.05.06.14.13-.27.2-.05.07.07.14,0,.22-.04.08-.05.16.09.24-.04.08-.28.17.31.26-.04.09-.08.18-.06.28-.04.1.22.19,0,.29-.04.1.26.21.15.31-.03.11.36.22.3.33-.03.11-.01.23.13.34-.03.12-.02.23-.09.36-.03.12-.24.24-.23.37-.02.12-.25.25-.15.38-.02.13.14.26-.22.39-.02.13.02.27-.06.4-.02.14.1.27.22.42-.01.14-.06.28-.15.42-.01.14-.27.29-.15.43,0,.15-.04.29.15.44,0,.15.04.3-.12.45,0,.15.08.3.16.45,0,.15-.17.3.07.44,0,.15.26.29-.08.43,0,.14-.03.29.15.42.01.14-.05.28-.1.41.01.14-.39.27.1.4.02.13.17.26-.03.39.02.13-.07.26.18.38.02.13.03.25-.13.37.02.12-.19.24.16.36.03.12,0,.23-.01.34.03.11.31.22.05.33.03.11.03.21-.17.31.03.1.03.2.16.29.04.1-.04.19.44.28.04.09-.07.18.31.26.04.08-.25.16.03.24.04.08.02.15.03.22.04.64.13,1,.29,1,.45,0,.18-.45.35-1.23.5-.08.01-.16.23-.24.04-.08,0-.17.16-.26.04-.09.28-.18.05-.28.04-.1.01-.19-.08-.29.04-.1.17-.2-.08-.31.03-.11-.17-.22-.13-.33.03-.11-.17-.23.04-.34.03-.12-.26-.24-.08-.36.03-.12.1-.24-.04-.37.03-.13-.05-.25.07-.38.02-.13.12-.26.17-.39.02-.13.08-.27.02-.4.02-.14.1-.27-.01-.41.01-.14.05-.28-.28-.42.01-.14.04-.29-.04-.43,0-.14-.04-.29-.07-.44,0-.15-.29-.3-.11-.45,0-.15.08-.3.04-.45,0-.15.03-.29.01-.44,0-.15.08-.29-.12-.43,0-.14.12-.28-.13-.42-.01-.14.08-.28.13-.42-.01-.14,0-.27-.26-.4-.02-.13.06-.26.38-.39-.02-.13.1-.26-.19-.38-.02-.13-.29-.25-.02-.37-.03-.12-.06-.24-.15-.36-.03-.12.14-.23-.07-.34-.03-.11.17-.22-.22-.33-.03-.11-.04-.21.03-.31-.03-.1.39-.2,0-.29-.04-.1-.06-.19.26-.28-.04-.09.3-.18.04-.26-.04-.08-.09-.16.13-.24-.04-.08.21-.15-.12-.22-.04-.07-.14-.14,0-.2-.05-.06.05-.12.03-.18-.05-.06-.02-.11-.03-.16-.05-.3-.1-.46-.2-.46-.31Z"/>
  </g>
</svg>