<svg id="Calque_3" data-name="Calque 3" xmlns="http://www.w3.org/2000/svg" viewBox="0 0 413.6 252.1"><defs><style>.cls-1{fill:#bf2025;}.cls-2{fill:#ed1c24;}.cls-3{fill:#0056a7;}</style></defs><path class="cls-1" d="M320.14,51.29a526.18,526.18,0,0,1-92.83,23.25,110.41,110.41,0,0,1-8.8,10.38A291.39,291.39,0,0,0,320.14,51.29Z"/><path class="cls-2" d="M227,52.53a11.79,11.79,0,1,1-11.79-11.77h0A11.78,11.78,0,0,1,227,52.53ZM144.06,81q-18.18,0-36.54-1.2c35.92,7.59,70.38,9.84,106,5.75a109.69,109.69,0,0,0,9.22-10.3A537.37,537.37,0,0,1,144.11,81Zm183.78,19.52a7,7,0,1,0,7,7,7,7,0,0,0-7-7Z"/><path class="cls-3" d="M111.55,99.72c15.47-.2,28.62,8.36,33.93,21.58,8.15,20.23-1.58,44.46-25.31,49.48C104.51,174.08,89,169,80,154.53a35.24,35.24,0,0,1-4.64-23.69c1.58-12.84,8.27-22.12,20-27.72A36.12,36.12,0,0,1,111.55,99.72Zm.19,10.3c-13.13-.73-26,9.18-26,25.7,0,16.27,12.53,25.57,25.31,25.77A25.43,25.43,0,0,0,137.4,137c0-.39,0-.77,0-1.16.12-15.59-12.14-26.42-25.65-25.85Zm232.1,40.42a3.84,3.84,0,0,0,0,.83c1.33,9.18,6.47,15.23,15.11,18.45A37.68,37.68,0,0,0,375,171.56a30.2,30.2,0,0,0,14.53-4.51c7-4.56,9.79-11.05,9-19.25s-5.63-13.38-13.43-15.53c-5.39-1.48-11-2.3-16.47-3.46-3.46-.72-7-1.23-10-3.38a6.71,6.71,0,0,1-3.08-4.43,8.61,8.61,0,0,1,4.74-9.57,21.64,21.64,0,0,1,12.11-2.36,17.62,17.62,0,0,1,10.85,3.68,11.44,11.44,0,0,1,3.86,7.9h9.76a6.37,6.37,0,0,0,.09-1.23,19,19,0,0,0-12-17,34.06,34.06,0,0,0-28.48.21c-7.61,3.44-11.67,9.47-11.29,18.1a16.29,16.29,0,0,0,11.07,15.36c5.63,2.12,11.53,2.91,17.4,4.05,3.91.74,7.91,1.39,11.17,4a7.64,7.64,0,0,1,3.17,4.82,9.09,9.09,0,0,1-5.27,10.46,24.22,24.22,0,0,1-21.36.22,11.76,11.76,0,0,1-6.61-7.52c-.29-1-.48-1.94-.7-2.89H344a6.74,6.74,0,0,0-.14,1.28ZM68.41,119.72a12.68,12.68,0,0,0-.11-1.85,19.84,19.84,0,0,0-13.4-16.06,35.57,35.57,0,0,0-25.14,0c-9,3.27-13.26,9.65-13.11,19a16,16,0,0,0,11.07,15.4,106.06,106.06,0,0,0,17.4,4c3.93.76,7.91,1.43,11.2,4a8.08,8.08,0,0,1,3.26,8c-.52,4.36-3.43,6.73-7.2,8.17a25.21,25.21,0,0,1-17.4.3,12.66,12.66,0,0,1-8.78-8.45c-.3-.95-.47-1.93-.7-2.86H15.38a16,16,0,0,0,0,2,21.31,21.31,0,0,0,13.21,17.67,37,37,0,0,0,26,1c12.07-3.62,17.81-13.6,14.82-25.47C67.73,137.82,63,134,56.64,132.27c-5.41-1.45-11.08-2.3-16.49-3.46-3.52-.72-7.11-1.23-10.14-3.45a6.66,6.66,0,0,1-3-4.35,8.59,8.59,0,0,1,4.74-9.65,21.16,21.16,0,0,1,12-2.29c6.62.46,13.46,2.36,14.85,11.67h9.65a8.73,8.73,0,0,0,.19-1Zm138.06-12.78v34.18a38.83,38.83,0,0,0,.43,6.55c1.58,9.8,6.78,17.08,15.82,21.23A35.8,35.8,0,0,0,244.44,171c13.05-2.26,22.29-12.64,23-26.49.3-6.32.09-12.64.11-19V101c0-1.24-.32-1.73-1.59-1.58a58.81,58.81,0,0,1-6.77,0c-1.8-.15-2.15.53-2.13,2.18q.09,18.47,0,36.89a36.34,36.34,0,0,1-.63,7.21c-1.49,7.15-5.3,12.63-12.55,14.78a29.43,29.43,0,0,1-8.51.9,17,17,0,0,1-12.77-5.67,22.12,22.12,0,0,1-5.52-15.37c-.14-11.56,0-23.12-.09-34.75v-2l-10.41,1.07ZM312,160.34h-8.42c-8.14,0-13.46-5.38-13.47-13.49V123.68c0-1.67.49-2.11,2.1-2.07,4,.1,8,0,12,0,.53,0,1.44-.5,1.46-.8.11-2.8,0-5.59,0-8.53H292.41c-2.35,0-2.35,0-2.35-2.42V99.53H279.43v45.85a54.78,54.78,0,0,0,.34,5.89A20.76,20.76,0,0,0,294.41,169c5.72,1.72,11.59,1.28,17.55,1.3Zm-152.82,9.78h39.25V160H172.88c-3.16,0-3,.49-3-3v-49c0-3.7,0-3.7-3.72-4.22a5.23,5.23,0,0,1-.66-.15l-6.33-.84Zm168.67-51.29a11.16,11.16,0,0,1-5.42-1.37V170.2h10.71V117.54A11.45,11.45,0,0,1,327.84,118.83Z"/></svg>