<?xml version="1.0" encoding="UTF-8"?>
<svg id="Calque_3" data-name="Calque 3" xmlns="http://www.w3.org/2000/svg" viewBox="0 0 383.31 131.17">
  <defs>
    <style>
      .cls-1 {
        fill: #fff;
        stroke-width: 0px;
      }
    </style>
  </defs>
  <path class="cls-1" d="m304.79,10.53c-30.17,10.55-61.24,18.34-92.83,23.25-2.72,3.64-5.66,7.1-8.8,10.38,35.66-4.84,70.12-16.24,101.63-33.63Z"/>
  <path class="cls-1" d="m211.65,11.77c.01,6.51-5.26,11.8-11.77,11.81s-11.8-5.26-11.81-11.77C188.06,5.3,193.33.01,199.84,0c0,0,.01,0,.02,0h0c6.51,0,11.78,5.26,11.79,11.77h0Zm-82.94,28.47c-12.12,0-24.3-.4-36.54-1.2,35.92,7.59,70.38,9.84,106,5.75,3.29-3.24,6.37-6.68,9.22-10.3-26.03,3.84-52.31,5.76-78.63,5.75h-.05Zm183.78,19.52c-3.87,0-7,3.13-7,7s3.13,7,7,7,7-3.13,7-7-3.13-7-7-7h0Z"/>
  <path class="cls-1" d="m96.2,58.96c15.47-.2,28.62,8.36,33.93,21.58,8.15,20.23-1.58,44.46-25.31,49.48-15.66,3.3-31.17-1.78-40.17-16.25-4.29-7.1-5.93-15.49-4.64-23.69,1.58-12.84,8.27-22.12,20-27.72,5.06-2.37,10.6-3.53,16.19-3.4Zm.19,10.3c-13.13-.73-26,9.18-26,25.7s12.53,25.57,25.31,25.77c14.04.52,25.83-10.44,26.35-24.48,0,0,0,0,0-.01v-1.16c.12-15.59-12.14-26.42-25.65-25.85v.03Zm232.1,40.42c-.03.28-.03.55,0,.83,1.33,9.18,6.47,15.23,15.11,18.45,5.15,1.77,10.63,2.39,16.05,1.84,5.15-.24,10.15-1.79,14.53-4.51,7-4.56,9.79-11.05,9-19.25s-5.63-13.38-13.43-15.53c-5.39-1.48-11-2.3-16.47-3.46-3.46-.72-7-1.23-10-3.38-1.6-.98-2.72-2.59-3.08-4.43-.83-3.9,1.13-7.86,4.74-9.57,3.72-1.95,7.93-2.77,12.11-2.36,3.93-.02,7.74,1.28,10.85,3.68,2.29,2.01,3.68,4.86,3.86,7.9h9.76c.07-.41.1-.82.09-1.23-.27-7.55-4.98-14.22-12-17-9.07-4.09-19.47-4.02-28.48.21-7.61,3.44-11.67,9.47-11.29,18.1.03,6.96,4.48,13.13,11.07,15.36,5.63,2.12,11.53,2.91,17.4,4.05,3.91.74,7.91,1.39,11.17,4,1.65,1.13,2.78,2.86,3.17,4.82,1.02,4.3-1.2,8.72-5.27,10.46-6.7,3.38-14.59,3.46-21.36.22-3.21-1.4-5.64-4.15-6.61-7.52-.29-1-.48-1.94-.7-2.89h-10.06c-.09.42-.13.85-.14,1.28l-.02-.07ZM53.06,78.96c0-.62-.03-1.24-.11-1.85-1.05-7.46-6.25-13.69-13.4-16.06-8.1-3.06-17.04-3.06-25.14,0-9,3.27-13.26,9.65-13.11,19-.08,7,4.41,13.24,11.07,15.4,5.68,1.82,11.5,3.16,17.4,4,3.93.76,7.91,1.43,11.2,4,2.54,1.81,3.81,4.93,3.26,8-.52,4.36-3.43,6.73-7.2,8.17-5.58,2.16-11.75,2.27-17.4.3-4.18-1.13-7.49-4.32-8.78-8.45-.3-.95-.47-1.93-.7-2.86H.03c-.04.67-.04,1.33,0,2,.77,7.89,5.86,14.7,13.21,17.67,8.26,3.47,17.5,3.83,26,1,12.07-3.62,17.81-13.6,14.82-25.47-1.68-6.75-6.41-10.57-12.77-12.3-5.41-1.45-11.08-2.3-16.49-3.46-3.52-.72-7.11-1.23-10.14-3.45-1.56-.97-2.64-2.55-3-4.35-.88-3.93,1.09-7.94,4.74-9.65,3.69-1.93,7.86-2.72,12-2.29,6.62.46,13.46,2.36,14.85,11.67h9.65c.08-.33.15-.66.19-1l-.03-.02Zm138.06-12.78v34.18c-.04,2.19.1,4.38.43,6.55,1.58,9.8,6.78,17.08,15.82,21.23,6.85,2.94,14.44,3.68,21.72,2.1,13.05-2.26,22.29-12.64,23-26.49.3-6.32.09-12.64.11-19v-24.51c0-1.24-.32-1.73-1.59-1.58-2.25.13-4.52.13-6.77,0-1.8-.15-2.15.53-2.13,2.18.06,12.31.06,24.61,0,36.89.03,2.42-.18,4.83-.63,7.21-1.49,7.15-5.3,12.63-12.55,14.78-2.78.71-5.64,1.02-8.51.9-4.87.03-9.52-2.04-12.77-5.67-3.73-4.23-5.71-9.73-5.52-15.37-.14-11.56,0-23.12-.09-34.75v-2l-10.41,1.07-.11,2.28Zm105.53,53.4h-8.42c-8.14,0-13.46-5.38-13.47-13.49v-23.17c0-1.67.49-2.11,2.1-2.07,4,.1,8,0,12,0,.53,0,1.44-.5,1.46-.8.11-2.8,0-5.59,0-8.53h-13.26q-2.35,0-2.35-2.42v-10.33h-10.63v45.85c0,1.97.12,3.93.34,5.89.86,8.32,6.63,15.31,14.64,17.73,5.72,1.72,11.59,1.28,17.55,1.3l.04-9.96Zm-152.82,9.78h39.25v-10.12h-25.55c-3.16,0-3,.49-3-3v-49q0-3.7-3.72-4.22c-.22-.04-.44-.09-.66-.15l-6.33-.84v67.33Zm168.67-51.29c-1.89.01-3.76-.46-5.42-1.37v52.74h10.71v-52.66c-1.64.85-3.46,1.29-5.3,1.29h0Z"/>
</svg>