<svg id="Groupe_77" data-name="Groupe 77" xmlns="http://www.w3.org/2000/svg" xmlns:xlink="http://www.w3.org/1999/xlink" width="34" height="43" viewBox="0 0 34 43">
  <defs>
    <clipPath id="clip-path">
      <rect id="Rectangle_87" data-name="Rectangle 87" width="34" height="43" fill="#4738de"/>
    </clipPath>
  </defs>
  <g id="Groupe_76" data-name="Groupe 76" clip-path="url(#clip-path)">
    <path id="Tracé_53" data-name="Tracé 53" d="M364.728,3.036a.439.439,0,0,1-.441-.438V.438a.441.441,0,0,1,.882,0V2.6a.439.439,0,0,1-.441.438" transform="translate(-347.728)" fill="#4738de"/>
    <path id="Tracé_54" data-name="Tracé 54" d="M588.425,109.1a.441.441,0,0,1-.312-.128.435.435,0,0,1,0-.619l1.54-1.528a.444.444,0,0,1,.624,0,.435.435,0,0,1,0,.619l-1.541,1.528a.442.442,0,0,1-.312.128" transform="translate(-561.257 -101.887)" fill="#4738de"/>
    <path id="Tracé_55" data-name="Tracé 55" d="M107.138,590.383a.442.442,0,0,1-.312-.128.435.435,0,0,1,0-.619l1.541-1.528a.444.444,0,0,1,.624,0,.435.435,0,0,1,0,.619l-1.541,1.528a.441.441,0,0,1-.312.128" transform="translate(-101.847 -561.473)" fill="#4738de"/>
    <path id="Tracé_56" data-name="Tracé 56" d="M683.262,365.161h-2.179a.438.438,0,1,1,0-.875h2.179a.438.438,0,1,1,0,.875" transform="translate(-649.703 -347.864)" fill="#4738de"/>
    <path id="Tracé_57" data-name="Tracé 57" d="M2.62,365.161H.441a.438.438,0,1,1,0-.875H2.62a.438.438,0,1,1,0,.875" transform="translate(0 -347.864)" fill="#4738de"/>
    <path id="Tracé_58" data-name="Tracé 58" d="M589.966,590.383a.441.441,0,0,1-.312-.128l-1.541-1.528a.435.435,0,0,1,0-.619.444.444,0,0,1,.624,0l1.541,1.528a.435.435,0,0,1,0,.619.442.442,0,0,1-.312.128" transform="translate(-561.257 -561.473)" fill="#4738de"/>
    <path id="Tracé_59" data-name="Tracé 59" d="M108.679,109.1a.442.442,0,0,1-.312-.128l-1.541-1.528a.435.435,0,0,1,0-.619.444.444,0,0,1,.624,0l1.541,1.528a.435.435,0,0,1,0,.619.442.442,0,0,1-.312.128" transform="translate(-101.847 -101.887)" fill="#4738de"/>
    <path id="Tracé_60" data-name="Tracé 60" d="M486.9,31.132a.442.442,0,0,1-.17-.034.436.436,0,0,1-.237-.573l.842-1.993a.443.443,0,0,1,.577-.235.436.436,0,0,1,.237.573l-.841,1.993a.441.441,0,0,1-.407.269" transform="translate(-464.346 -26.99)" fill="#4738de"/>
    <path id="Tracé_61" data-name="Tracé 61" d="M657.456,227.851a.441.441,0,0,1-.409-.272.436.436,0,0,1,.241-.571l2.016-.819a.442.442,0,0,1,.576.239.436.436,0,0,1-.241.571l-2.016.819a.443.443,0,0,1-.167.033" transform="translate(-627.149 -215.961)" fill="#4738de"/>
    <path id="Tracé_62" data-name="Tracé 62" d="M27.638,485.926a.441.441,0,0,1-.408-.272.436.436,0,0,1,.241-.571l2.016-.819a.443.443,0,0,1,.576.239.437.437,0,0,1-.241.571l-2.016.819a.444.444,0,0,1-.167.033" transform="translate(-25.961 -462.402)" fill="#4738de"/>
    <path id="Tracé_63" data-name="Tracé 63" d="M658.546,488.168a.444.444,0,0,1-.17-.034l-2.009-.834a.436.436,0,0,1-.237-.573.443.443,0,0,1,.577-.235l2.01.834a.437.437,0,0,1,.237.573.442.442,0,0,1-.407.269" transform="translate(-626.272 -464.529)" fill="#4738de"/>
    <path id="Tracé_64" data-name="Tracé 64" d="M30.71,225.309a.443.443,0,0,1-.17-.034l-2.01-.835a.436.436,0,0,1-.237-.573.443.443,0,0,1,.577-.235l2.01.834a.436.436,0,0,1,.237.573.442.442,0,0,1-.407.269" transform="translate(-26.975 -213.52)" fill="#4738de"/>
    <path id="Tracé_65" data-name="Tracé 65" d="M227.426,30.073a.442.442,0,0,1-.409-.272l-.826-2a.436.436,0,0,1,.241-.571.443.443,0,0,1,.576.239l.826,2a.436.436,0,0,1-.241.571.443.443,0,0,1-.167.033" transform="translate(-215.878 -25.973)" fill="#4738de"/>
    <path id="Tracé_66" data-name="Tracé 66" d="M286.532,803.825h-7.453a.755.755,0,1,1,0-1.51h7.453a.755.755,0,1,1,0,1.51" transform="translate(-265.667 -766.146)" fill="#4738de"/>
    <path id="Tracé_67" data-name="Tracé 67" d="M286.532,856.437h-7.453a.755.755,0,1,1,0-1.51h7.453a.755.755,0,1,1,0,1.51" transform="translate(-265.667 -816.386)" fill="#4738de"/>
    <path id="Tracé_68" data-name="Tracé 68" d="M331.058,908.244a.294.294,0,0,0-.291.347,2.117,2.117,0,0,0,4.155,0,.294.294,0,0,0-.291-.347Z" transform="translate(-315.727 -867.3)" fill="#4738de"/>
    <path id="Tracé_69" data-name="Tracé 69" d="M141.545,149.661h-5.984a2,2,0,0,1-1.987-1.83c-.254-3.346-1.63-5.466-3.088-7.71-1.59-2.448-3.233-4.979-3.233-9.072a11.179,11.179,0,0,1,9.478-11.059,11.628,11.628,0,0,1,3.914.046,11.228,11.228,0,0,1,9.209,11.013c0,4.093-1.644,6.624-3.234,9.072-1.458,2.245-2.835,4.365-3.088,7.711a2,2,0,0,1-1.987,1.83" transform="translate(-121.469 -114.444)" fill="#4738de"/>
    <path id="Tracé_70" data-name="Tracé 70" d="M198.108,277.1a.736.736,0,0,1-.595-.3,10.171,10.171,0,0,1-.943-11,.739.739,0,0,1,1.007-.259.726.726,0,0,1,.262,1,8.735,8.735,0,0,0,.863,9.4.725.725,0,0,1-.162,1.019.736.736,0,0,1-.432.14" transform="translate(-186.499 -253.476)" fill="#4738de"/>
  </g>
</svg>
