<svg xmlns="http://www.w3.org/2000/svg" xmlns:xlink="http://www.w3.org/1999/xlink" width="31.819" height="37.355" viewBox="0 0 31.819 37.355">
  <defs>
    <clipPath id="clip-path">
      <rect id="Rectangle_87" data-name="Rectangle 87" width="26" height="33" transform="translate(0 -0.118)" fill="#4738de"/>
    </clipPath>
  </defs>
  <g id="Groupe_77" data-name="Groupe 77" transform="translate(0.065 5.293) rotate(-11)">
    <g id="Groupe_76" data-name="Groupe 76" transform="translate(0 -0.221)" clip-path="url(#clip-path)">
      <path id="Tracé_53" data-name="Tracé 53" d="M364.621,2.3a.333.333,0,0,1-.334-.332V.332a.334.334,0,0,1,.669,0V1.97a.333.333,0,0,1-.335.332" transform="translate(-351.734 0.169)" fill="#4738de"/>
      <path id="Tracé_54" data-name="Tracé 54" d="M588.319,108.518a.334.334,0,0,1-.236-.1.329.329,0,0,1,0-.469l1.168-1.158a.336.336,0,0,1,.473,0,.33.33,0,0,1,0,.469l-1.168,1.158a.335.335,0,0,1-.236.1" transform="translate(-567.723 -102.882)" fill="#4738de"/>
      <path id="Tracé_55" data-name="Tracé 55" d="M107.031,589.8a.335.335,0,0,1-.236-.1.33.33,0,0,1,0-.469l1.168-1.158a.336.336,0,0,1,.473,0,.33.33,0,0,1,0,.469l-1.168,1.158a.335.335,0,0,1-.236.1" transform="translate(-103.02 -567.717)" fill="#4738de"/>
      <path id="Tracé_56" data-name="Tracé 56" d="M682.628,364.949h-1.651a.332.332,0,1,1,0-.663h1.651a.332.332,0,1,1,0,.663" transform="translate(-657.188 -351.668)" fill="#4738de"/>
      <path id="Tracé_57" data-name="Tracé 57" d="M1.986,364.949H.334a.332.332,0,1,1,0-.663H1.986a.332.332,0,1,1,0,.663" transform="translate(0 -351.668)" fill="#4738de"/>
      <path id="Tracé_58" data-name="Tracé 58" d="M589.486,589.8a.334.334,0,0,1-.236-.1l-1.168-1.158a.33.33,0,0,1,0-.469.336.336,0,0,1,.473,0l1.168,1.158a.33.33,0,0,1,0,.469.335.335,0,0,1-.236.1" transform="translate(-567.723 -567.717)" fill="#4738de"/>
      <path id="Tracé_59" data-name="Tracé 59" d="M108.2,108.518a.335.335,0,0,1-.236-.1l-1.168-1.158a.33.33,0,0,1,0-.469.336.336,0,0,1,.473,0l1.168,1.158a.33.33,0,0,1,0,.469.335.335,0,0,1-.236.1" transform="translate(-103.02 -102.882)" fill="#4738de"/>
      <path id="Tracé_60" data-name="Tracé 60" d="M486.793,30.438a.335.335,0,0,1-.129-.026.331.331,0,0,1-.18-.434l.638-1.511a.336.336,0,0,1,.438-.178.331.331,0,0,1,.179.434l-.638,1.511a.334.334,0,0,1-.309.2" transform="translate(-469.696 -27.129)" fill="#4738de"/>
      <path id="Tracé_61" data-name="Tracé 61" d="M657.349,227.441a.335.335,0,0,1-.31-.206.331.331,0,0,1,.183-.433l1.528-.621a.335.335,0,0,1,.436.181.331.331,0,0,1-.183.433l-1.528.621a.336.336,0,0,1-.127.025" transform="translate(-634.374 -218.259)" fill="#4738de"/>
      <path id="Tracé_62" data-name="Tracé 62" d="M27.532,485.516a.335.335,0,0,1-.31-.206.331.331,0,0,1,.183-.433l1.528-.621a.335.335,0,0,1,.436.181.331.331,0,0,1-.183.433l-1.528.621a.336.336,0,0,1-.127.025" transform="translate(-26.26 -467.514)" fill="#4738de"/>
      <path id="Tracé_63" data-name="Tracé 63" d="M657.953,487.755a.337.337,0,0,1-.129-.026L656.3,487.1a.331.331,0,0,1-.179-.434.336.336,0,0,1,.438-.178l1.523.633a.331.331,0,0,1,.18.434.335.335,0,0,1-.309.2" transform="translate(-633.487 -469.665)" fill="#4738de"/>
      <path id="Tracé_64" data-name="Tracé 64" d="M30.117,224.9a.336.336,0,0,1-.129-.026l-1.524-.633a.331.331,0,0,1-.179-.434.336.336,0,0,1,.438-.178l1.524.633a.331.331,0,0,1,.179.434.335.335,0,0,1-.309.2" transform="translate(-27.286 -215.79)" fill="#4738de"/>
      <path id="Tracé_65" data-name="Tracé 65" d="M227.119,29.378a.335.335,0,0,1-.31-.206l-.626-1.516a.331.331,0,0,1,.183-.433.336.336,0,0,1,.436.181l.626,1.516a.331.331,0,0,1-.183.433.336.336,0,0,1-.127.025" transform="translate(-218.365 -26.1)" fill="#4738de"/>
      <path id="Tracé_66" data-name="Tracé 66" d="M284.545,803.46H278.9a.573.573,0,1,1,0-1.145h5.65a.573.573,0,1,1,0,1.145" transform="translate(-268.728 -774.728)" fill="#4738de"/>
      <path id="Tracé_67" data-name="Tracé 67" d="M284.545,856.072H278.9a.572.572,0,1,1,0-1.145h5.65a.572.572,0,1,1,0,1.145" transform="translate(-268.728 -825.542)" fill="#4738de"/>
      <path id="Tracé_68" data-name="Tracé 68" d="M330.986,908.244a.223.223,0,0,0-.22.263,1.6,1.6,0,0,0,3.149,0,.223.223,0,0,0-.22-.263Z" transform="translate(-319.365 -877.037)" fill="#4738de"/>
      <path id="Tracé_69" data-name="Tracé 69" d="M138.087,142.448h-4.536a1.513,1.513,0,0,1-1.507-1.387,11.6,11.6,0,0,0-2.341-5.845c-1.205-1.856-2.451-3.774-2.451-6.877a8.475,8.475,0,0,1,7.185-8.384,8.814,8.814,0,0,1,2.967.035,8.511,8.511,0,0,1,6.981,8.348c0,3.1-1.246,5.021-2.451,6.877a11.6,11.6,0,0,0-2.341,5.845,1.513,1.513,0,0,1-1.507,1.387" transform="translate(-122.868 -115.582)" fill="#4738de"/>
      <path id="Tracé_70" data-name="Tracé 70" d="M197.448,274.281a.558.558,0,0,1-.451-.227,7.71,7.71,0,0,1-.715-8.339.56.56,0,0,1,.763-.2.55.55,0,0,1,.2.756,6.622,6.622,0,0,0,.654,7.129.55.55,0,0,1-.122.772.558.558,0,0,1-.328.106" transform="translate(-188.647 -256.202)" fill="#4738de"/>
    </g>
  </g>
</svg>
