<svg id="Groupe_109" data-name="Groupe 109" xmlns="http://www.w3.org/2000/svg" xmlns:xlink="http://www.w3.org/1999/xlink" width="40" height="41.749" viewBox="0 0 40 41.749">
  <defs>
    <clipPath id="clip-path">
      <rect id="Rectangle_158" data-name="Rectangle 158" width="40" height="41.749" fill="none" stroke="#4738de" stroke-width="1.5"/>
    </clipPath>
  </defs>
  <g id="Groupe_108" data-name="Groupe 108" clip-path="url(#clip-path)">
    <path id="Rectangle_157" data-name="Rectangle 157" d="M5.814,0H29.282A5.814,5.814,0,0,1,35.1,5.814v0a5.814,5.814,0,0,1-5.814,5.814H5.814A5.814,5.814,0,0,1,0,5.814v0A5.814,5.814,0,0,1,5.814,0Z" transform="translate(4.521 0.378)" fill="none" stroke="#4738de" stroke-linecap="round" stroke-linejoin="round" stroke-width="1.5"/>
    <path id="Tracé_109" data-name="Tracé 109" d="M16.088,23.666h-.935a.889.889,0,0,1-.89-.89V19.172a.889.889,0,0,1,.89-.89h.935Z" transform="translate(-11.567 -14.825)" fill="none" stroke="#4738de" stroke-linecap="round" stroke-linejoin="round" stroke-width="1.5"/>
    <path id="Tracé_110" data-name="Tracé 110" d="M4.032,32.753H3.905A1.905,1.905,0,0,0,2,34.658v7.678A3.463,3.463,0,0,0,5.463,45.8h14.1a3.367,3.367,0,0,1,3.368,3.368v1.019" transform="translate(-1.622 -26.56)" fill="none" stroke="#4738de" stroke-linecap="round" stroke-linejoin="round" stroke-width="1.5"/>
    <path id="Tracé_111" data-name="Tracé 111" d="M104.3,127.214v-.721a.669.669,0,0,1,.669-.669h1.848a.669.669,0,0,1,.669.669v.721" transform="translate(-84.579 -102.034)" fill="none" stroke="#4738de" stroke-linecap="round" stroke-linejoin="round" stroke-width="1.5"/>
    <path id="Tracé_112" data-name="Tracé 112" d="M103.36,150.481h-1.726a1.522,1.522,0,0,1-1.522-1.522V134.55h4.77v14.409A1.522,1.522,0,0,1,103.36,150.481Z" transform="translate(-81.184 -109.111)" fill="none" stroke="#4738de" stroke-linecap="round" stroke-linejoin="round" stroke-width="1.5"/>
    <path id="Tracé_113" data-name="Tracé 113" d="M94.766,48.908v1.985a2.17,2.17,0,0,0,2.171,2.17,2.17,2.17,0,0,1,2.17,2.171v.856a1.688,1.688,0,0,0,1.688,1.688h.964a1.688,1.688,0,0,0,1.688-1.688,1.688,1.688,0,0,1,1.688-1.688h.964a1.688,1.688,0,0,1,1.688,1.688v3.42a2.17,2.17,0,1,0,4.341,0v-3.13A2.171,2.171,0,0,1,114.3,54.21a2.17,2.17,0,0,0,2.17-2.17V45.505" transform="translate(-76.849 -36.901)" fill="none" stroke="#4738de" stroke-linecap="round" stroke-linejoin="round" stroke-width="1.5"/>
    <path id="Tracé_114" data-name="Tracé 114" d="M155.565,153.472h0a1.8,1.8,0,0,1-1.8-1.8v-3.235a1.8,1.8,0,1,1,3.6,0v3.235A1.8,1.8,0,0,1,155.565,153.472Z" transform="translate(-124.691 -118.909)" fill="none" stroke="#4738de" stroke-linecap="round" stroke-linejoin="round" stroke-width="1.5"/>
  </g>
</svg>
