<svg id="Groupe_20" data-name="Groupe 20" xmlns="http://www.w3.org/2000/svg" xmlns:xlink="http://www.w3.org/1999/xlink" width="180" height="61.596" viewBox="0 0 180 61.596">
  <defs>
    <clipPath id="clip-path">
      <rect id="Rectangle_47" data-name="Rectangle 47" width="180" height="61.596" fill="none"/>
    </clipPath>
  </defs>
  <g id="Groupe_19" data-name="Groupe 19" clip-path="url(#clip-path)">
    <path id="Tracé_24" data-name="Tracé 24" d="M250.886,10.53a247.07,247.07,0,0,1-43.592,10.918,51.834,51.834,0,0,1-4.132,4.874A136.836,136.836,0,0,0,250.886,10.53" transform="translate(-107.758 -5.585)" fill="#bf2025"/>
    <path id="Tracé_25" data-name="Tracé 25" d="M148.278,5.527A5.537,5.537,0,1,1,142.732,0h.009a5.532,5.532,0,0,1,5.536,5.527M109.33,18.9q-8.537,0-17.159-.564a152.476,152.476,0,0,0,49.777,2.7,51.5,51.5,0,0,0,4.33-4.837,252.385,252.385,0,0,1-36.924,2.7Zm86.3,9.166a3.287,3.287,0,1,0,3.287,3.287,3.287,3.287,0,0,0-3.287-3.287" transform="translate(-48.888 0)" fill="#ed1c24"/>
    <path id="Tracé_26" data-name="Tracé 26" d="M45.175,58.787c7.265-.094,13.44,3.926,15.933,10.134,3.827,9.5-.742,20.878-11.885,23.235-7.354,1.55-14.637-.836-18.864-7.631A16.548,16.548,0,0,1,28.18,73.4a15.767,15.767,0,0,1,9.392-13.017,16.962,16.962,0,0,1,7.6-1.6m.089,4.837c-6.166-.343-12.209,4.311-12.209,12.069a11.8,11.8,0,0,0,11.885,12.1A11.942,11.942,0,0,0,57.314,76.3v-.551A11.7,11.7,0,0,0,45.269,63.61ZM154.257,82.6a1.8,1.8,0,0,0,0,.39,10.269,10.269,0,0,0,7.1,8.664,17.693,17.693,0,0,0,7.537.864,14.181,14.181,0,0,0,6.823-2.118,8.978,8.978,0,0,0,4.226-9.04c-.371-3.851-2.644-6.283-6.307-7.293-2.531-.695-5.166-1.08-7.734-1.625a11.744,11.744,0,0,1-4.7-1.587,3.152,3.152,0,0,1-1.446-2.08,4.043,4.043,0,0,1,2.226-4.494,10.163,10.163,0,0,1,5.687-1.108,8.275,8.275,0,0,1,5.1,1.728,5.372,5.372,0,0,1,1.813,3.71h4.583a2.975,2.975,0,0,0,.042-.578,8.923,8.923,0,0,0-5.635-7.983,16,16,0,0,0-13.374.1,8.316,8.316,0,0,0-5.3,8.5,7.649,7.649,0,0,0,5.2,7.213,49.608,49.608,0,0,0,8.171,1.9,11.3,11.3,0,0,1,5.245,1.878,3.588,3.588,0,0,1,1.489,2.263,4.269,4.269,0,0,1-2.475,4.912,11.373,11.373,0,0,1-10.031.1,5.523,5.523,0,0,1-3.1-3.531c-.136-.47-.225-.911-.329-1.357h-4.724a3.189,3.189,0,0,0-.066.6ZM24.917,68.179a5.9,5.9,0,0,0-.052-.869,9.317,9.317,0,0,0-6.293-7.542,16.7,16.7,0,0,0-11.806,0C2.541,61.3.54,64.3.611,68.691a7.513,7.513,0,0,0,5.2,7.232A49.808,49.808,0,0,0,13.98,77.8a11.7,11.7,0,0,1,5.259,1.878,3.794,3.794,0,0,1,1.531,3.757c-.244,2.047-1.611,3.16-3.381,3.837a11.838,11.838,0,0,1-8.171.141A5.944,5.944,0,0,1,5.1,83.445c-.141-.446-.221-.906-.329-1.343H.014a7.461,7.461,0,0,0,0,.939,10.008,10.008,0,0,0,6.2,8.3,17.377,17.377,0,0,0,12.209.47c5.668-1.7,8.363-6.386,6.959-11.961a7.775,7.775,0,0,0-6-5.776c-2.54-.681-5.2-1.08-7.744-1.625a11.52,11.52,0,0,1-4.762-1.62,3.126,3.126,0,0,1-1.409-2.043A4.034,4.034,0,0,1,7.7,64.253a9.935,9.935,0,0,1,5.635-1.075c3.109.216,6.321,1.108,6.973,5.48h4.532a4.077,4.077,0,0,0,.089-.47Zm64.832-6V78.228a18.22,18.22,0,0,0,.2,3.076,12.55,12.55,0,0,0,7.429,9.969,16.814,16.814,0,0,0,10.2.986,12.876,12.876,0,0,0,10.8-12.44c.141-2.968.042-5.936.052-8.922V59.388c0-.582-.15-.812-.747-.742a27.62,27.62,0,0,1-3.179,0c-.845-.07-1.01.249-1,1.024q.042,8.673,0,17.323a17.093,17.093,0,0,1-.3,3.386c-.7,3.358-2.489,5.931-5.893,6.941a13.826,13.826,0,0,1-4,.423,7.983,7.983,0,0,1-6-2.663,10.388,10.388,0,0,1-2.592-7.218c-.066-5.428,0-10.857-.042-16.318V60.6l-4.888.5ZM139.3,87.254h-3.954a5.965,5.965,0,0,1-6.325-6.335V70.038c0-.784.23-.991.986-.972,1.878.047,3.757,0,5.635,0,.249,0,.676-.235.686-.376.052-1.315,0-2.625,0-4.006h-6.227c-1.1,0-1.1,0-1.1-1.136V58.7H124.01V80.229a25.681,25.681,0,0,0,.16,2.766,9.749,9.749,0,0,0,6.875,8.326c2.686.808,5.443.6,8.241.61ZM67.542,91.846H85.973V87.094h-12c-1.484,0-1.409.23-1.409-1.409V62.675c0-1.737,0-1.737-1.747-1.982a2.506,2.506,0,0,1-.31-.07l-2.973-.394Zm79.206-24.085a5.238,5.238,0,0,1-2.545-.643V91.884h5.029V67.155a5.376,5.376,0,0,1-2.489.606Z" transform="translate(0 -31.1)" fill="#0056a7"/>
  </g>
</svg>
