<svg id="Groupe_99" data-name="Groupe 99" xmlns="http://www.w3.org/2000/svg" xmlns:xlink="http://www.w3.org/1999/xlink" width="40" height="42.777" viewBox="0 0 40 42.777">
  <defs>
    <clipPath id="clip-path">
      <rect id="Rectangle_145" data-name="Rectangle 145" width="40" height="42.777" fill="none" stroke="#4738de" stroke-width="1.5"/>
    </clipPath>
  </defs>
  <g id="Groupe_98" data-name="Groupe 98" clip-path="url(#clip-path)">
    <path id="Tracé_82" data-name="Tracé 82" d="M39.6,47.953a12.509,12.509,0,0,0,4.41,9.94,9.323,9.323,0,0,1,3.335,7.086v2.635A1.048,1.048,0,0,0,48.4,68.662h7.482a1.048,1.048,0,0,0,1.048-1.048v-2.6a9.3,9.3,0,0,1,3.308-7.094A12.536,12.536,0,1,0,40.966,42.665" transform="translate(-32.328 -29.231)" fill="none" stroke="#4738de" stroke-linecap="round" stroke-linejoin="round" stroke-width="1.5"/>
    <path id="Tracé_83" data-name="Tracé 83" d="M39.6,47.953a12.509,12.509,0,0,0,4.41,9.94,9.323,9.323,0,0,1,3.335,7.086v2.635A1.048,1.048,0,0,0,48.4,68.662h7.482a1.048,1.048,0,0,0,1.048-1.048v-2.6a9.3,9.3,0,0,1,3.308-7.094A12.536,12.536,0,1,0,40.966,42.665" transform="translate(-32.328 -29.231)" fill="none" stroke="#4738de" stroke-linecap="round" stroke-linejoin="round" stroke-width="1.5"/>
    <path id="Tracé_84" data-name="Tracé 84" d="M39.618,77.657q-.02-.355-.02-.715a12.482,12.482,0,0,1,1.586-6.108" transform="translate(-32.328 -57.829)" fill="none" stroke="#4738de" stroke-linecap="round" stroke-linejoin="round" stroke-width="1.5"/>
    <path id="Tracé_85" data-name="Tracé 85" d="M91.39,199.879H81.813" transform="translate(-66.793 -163.183)" fill="none" stroke="#4738de" stroke-linecap="round" stroke-linejoin="round" stroke-width="1.5"/>
    <path id="Tracé_86" data-name="Tracé 86" d="M98.155,215.265v1.347a1.542,1.542,0,0,1-1.542,1.542H94.358a1.542,1.542,0,0,1-1.542-1.542v-1.347" transform="translate(-75.776 -175.744)" fill="none" stroke="#4738de" stroke-linecap="round" stroke-linejoin="round" stroke-width="1.5"/>
    <line id="Ligne_60" data-name="Ligne 60" x2="10.159" transform="translate(14.681 33.3)" fill="none" stroke="#4738de" stroke-linecap="round" stroke-linejoin="round" stroke-width="1.5"/>
    <line id="Ligne_61" data-name="Ligne 61" y1="4.601" transform="translate(17.473 28.699)" fill="none" stroke="#4738de" stroke-linecap="round" stroke-linejoin="round" stroke-width="1.5"/>
    <path id="Tracé_87" data-name="Tracé 87" d="M85.613,130.987l-2.15-1.974v-3.723" transform="translate(-68.14 -102.287)" fill="none" stroke="#4738de" stroke-linecap="round" stroke-linejoin="round" stroke-width="1.5"/>
    <line id="Ligne_62" data-name="Ligne 62" y1="4.601" transform="translate(22.145 28.699)" fill="none" stroke="#4738de" stroke-linecap="round" stroke-linejoin="round" stroke-width="1.5"/>
    <path id="Tracé_88" data-name="Tracé 88" d="M120.618,130.987l2.15-1.974v-3.723" transform="translate(-98.473 -102.287)" fill="none" stroke="#4738de" stroke-linecap="round" stroke-linejoin="round" stroke-width="1.5"/>
    <line id="Ligne_63" data-name="Ligne 63" x2="11.625" transform="translate(13.956 24.361)" fill="none" stroke="#4738de" stroke-linecap="round" stroke-linejoin="round" stroke-width="1.5"/>
    <line id="Ligne_64" data-name="Ligne 64" y1="3.088" transform="translate(19.778 0.367)" fill="none" stroke="#4738de" stroke-linecap="round" stroke-linejoin="round" stroke-width="1.5"/>
    <line id="Ligne_65" data-name="Ligne 65" y1="2.184" x2="2.184" transform="translate(32.84 6.498)" fill="none" stroke="#4738de" stroke-linecap="round" stroke-linejoin="round" stroke-width="1.5"/>
    <line id="Ligne_66" data-name="Ligne 66" x2="3.088" transform="translate(36.544 21.614)" fill="none" stroke="#4738de" stroke-linecap="round" stroke-linejoin="round" stroke-width="1.5"/>
    <line id="Ligne_67" data-name="Ligne 67" x1="3.088" transform="translate(0.367 22.058)" fill="none" stroke="#4738de" stroke-linecap="round" stroke-linejoin="round" stroke-width="1.5"/>
    <line id="Ligne_68" data-name="Ligne 68" x1="2.184" y1="2.184" transform="translate(4.662 6.812)" fill="none" stroke="#4738de" stroke-linecap="round" stroke-linejoin="round" stroke-width="1.5"/>
  </g>
</svg>
