<svg id="Groupe_190" data-name="Groupe 190" xmlns="http://www.w3.org/2000/svg" xmlns:xlink="http://www.w3.org/1999/xlink" width="42" height="20.974" viewBox="0 0 42 20.974">
  <defs>
    <clipPath id="clip-path">
      <rect id="Rectangle_223" data-name="Rectangle 223" width="42" height="20.974" fill="#4738de" stroke="#4738de" stroke-width="0.7"/>
    </clipPath>
  </defs>
  <g id="Groupe_189" data-name="Groupe 189" clip-path="url(#clip-path)">
    <path id="Tracé_225" data-name="Tracé 225" d="M31.584,164.807H10.416A10.189,10.189,0,0,1,0,154.886v-.149A2.6,2.6,0,0,1,2.662,152.2a2.6,2.6,0,0,1,2.662,2.535v.149a4.982,4.982,0,0,0,5.093,4.851H31.584a4.982,4.982,0,0,0,5.093-4.851v-.149a2.665,2.665,0,0,1,5.323,0v.149a10.189,10.189,0,0,1-10.416,9.921M2.662,153.042a1.74,1.74,0,0,0-1.779,1.694v.149a9.326,9.326,0,0,0,9.534,9.08H31.584a9.326,9.326,0,0,0,9.534-9.08v-.149a1.781,1.781,0,0,0-3.558,0v.149a5.845,5.845,0,0,1-5.975,5.691H10.416a5.845,5.845,0,0,1-5.976-5.691v-.149a1.74,1.74,0,0,0-1.779-1.694" transform="translate(0 -145.473)" fill="#4738de" stroke="#4738de" stroke-width="0.7"/>
    <path id="Tracé_226" data-name="Tracé 226" d="M122.067,237.941a.457.457,0,0,1-.222-.057.409.409,0,0,1-.159-.575,4.145,4.145,0,0,1,3.531-1.933h23.53a4.15,4.15,0,0,1,3.519,1.913.409.409,0,0,1-.155.576.454.454,0,0,1-.6-.148,3.254,3.254,0,0,0-2.759-1.5h-23.53a3.25,3.25,0,0,0-2.768,1.516.446.446,0,0,1-.381.209" transform="translate(-115.979 -224.969)" fill="#4738de" stroke="#4738de" stroke-width="0.7"/>
    <path id="Tracé_227" data-name="Tracé 227" d="M75.965,7.585a.431.431,0,0,1-.441-.42V7.031A6.4,6.4,0,0,0,68.95.84H45.363a6.4,6.4,0,0,0-6.573,6.191v.134a.442.442,0,0,1-.882,0V7.031A7.261,7.261,0,0,1,45.363,0H68.95a7.261,7.261,0,0,1,7.456,7.031v.134a.431.431,0,0,1-.441.42" transform="translate(-36.147 0)" fill="#4738de" stroke="#4738de" stroke-width="0.7"/>
    <path id="Tracé_228" data-name="Tracé 228" d="M162.942,429.732l-1.259,1.974h1.259l2.073-1.974Z" transform="translate(-154.177 -410.731)" fill="#4738de" stroke="#4738de" stroke-width="0.7"/>
    <path id="Tracé_229" data-name="Tracé 229" d="M664.965,429.732l1.259,1.974h-1.259l-2.073-1.974Z" transform="translate(-632.118 -410.731)" fill="#4738de" stroke="#4738de" stroke-width="0.7"/>
  </g>
</svg>
