<svg xmlns="http://www.w3.org/2000/svg" width="41.811" height="40.768" viewBox="0 0 41.811 40.768">
  <g id="Groupe_121" data-name="Groupe 121" transform="translate(-443.195 -378.114)">
    <path id="Tracé_132" data-name="Tracé 132" d="M33.553,24.386a3.525,3.525,0,0,1-2.6-5.91l8.15-8.869,8.15,8.869a3.525,3.525,0,0,1-2.6,5.91" transform="translate(428.89 372.979)" fill="none" stroke="#4738de" stroke-linecap="round" stroke-linejoin="round" stroke-width="1.5"/>
    <path id="Tracé_134" data-name="Tracé 134" d="M45.846,4.88,42.065,1.158h7.562Z" transform="translate(421.999 377.706)" fill="none" stroke="#4738de" stroke-linecap="round" stroke-linejoin="round" stroke-width="1.5"/>
    <path id="Tracé_139" data-name="Tracé 139" d="M41.438,41.508s3.475-2.627,5.839-4.4c2.156-1.618,3.895-1.239,5.333-.094a.757.757,0,0,1,.041,1.139l-10.837,10.2a1.442,1.442,0,0,1-.989.393H26.616" transform="translate(431.365 362.251)" fill="none" stroke="#4738de" stroke-linecap="round" stroke-linejoin="round" stroke-width="1.5"/>
    <path id="Tracé_140" data-name="Tracé 140" d="M12.283,46.946c2.912-3.653,5.221-5.046,8.1-5.046a8.637,8.637,0,0,1,5.74,1.662h4.4a2.977,2.977,0,0,1,2.989,2.9.759.759,0,0,1-.752.851H24.3" transform="translate(436.874 358.739)" fill="none" stroke="#4738de" stroke-linecap="round" stroke-linejoin="round" stroke-width="1.5"/>
    <path id="Tracé_142" data-name="Tracé 142" d="M1.158,52.144l3.475-3.475L14.5,58.536l-3.476,3.475" transform="translate(443.098 355.81)" fill="none" stroke="#4738de" stroke-linecap="round" stroke-linejoin="round" stroke-width="1.5"/>
    <path id="Icon_material-euro-symbol" data-name="Icon material-euro-symbol" d="M8.911,10.2A2.382,2.382,0,0,1,6.794,8.911H8.911V8.176H6.551a2.312,2.312,0,0,1,0-.735h2.36V6.706H6.794A2.385,2.385,0,0,1,10.466,6l.651-.651a3.3,3.3,0,0,0-5.323,1.36H4.5v.735H5.625a3.074,3.074,0,0,0,0,.735H4.5v.735H5.794a3.3,3.3,0,0,0,5.323,1.36l-.654-.651A2.355,2.355,0,0,1,8.911,10.2Z" transform="translate(459.945 384.499)" fill="#4738de" stroke="#4738de" stroke-width="0.3"/>
  </g>
</svg>
