<svg xmlns="http://www.w3.org/2000/svg" width="38" height="41.675" viewBox="0 0 38 41.675">
  <g id="Groupe_130" data-name="Groupe 130" transform="translate(-3624.372 5326.138)">
    <path id="Tracé_164" data-name="Tracé 164" d="M25.933,31.281A12.054,12.054,0,0,0,19,33.447a12.089,12.089,0,0,0-4.757-1.972l4.715-3.046a.725.725,0,0,0,.288-.865l-1.4-3.716a.74.74,0,0,0-.694-.476H7.039a.739.739,0,0,0-.693.476l-1.4,3.716a.724.724,0,0,0,.288.865l4.7,3.038a11.894,11.894,0,0,0,2.132,23.623A12.067,12.067,0,0,0,19,52.926a11.965,11.965,0,1,0,6.929-21.645M1.48,43.186a10.588,10.588,0,0,1,21.175,0,10.286,10.286,0,0,1-1.478,5.322,7.189,7.189,0,0,1-1.327-1.538,8.48,8.48,0,0,0,.893-3.784,8.637,8.637,0,1,0-4.274,7.377,12.1,12.1,0,0,0,1.327,1.4A10.614,10.614,0,0,1,1.48,43.186m10.587,7.1a7.1,7.1,0,1,1,3.548-13.273,11.758,11.758,0,0,0,0,12.348,7.225,7.225,0,0,1-3.552.925m6.933-9a6.992,6.992,0,0,1,0,3.805,7,7,0,0,1,0-3.805m3.38-4.27a7.1,7.1,0,1,1,0,12.347,11.755,11.755,0,0,0,0-12.347m-6.558-9.923H8.379l3.731-2.142Zm.814-2.257.5,1.324-2.294-1.324Zm-9.083,0H9.369L7.051,26.162Zm.564,3.717h7.954l-3.977,2.569ZM25.933,53.631A10.529,10.529,0,0,1,15.346,43.186a10.27,10.27,0,0,1,1.478-5.322A7.182,7.182,0,0,1,18.15,39.4a8.482,8.482,0,0,0-.893,3.784,8.638,8.638,0,1,0,4.274-7.377A12.052,12.052,0,0,0,20.2,34.4a10.495,10.495,0,1,1,5.729,19.226" transform="translate(3624.372 -5339.554)" fill="#4738de"/>
    <path id="Tracé_165" data-name="Tracé 165" d="M28.639,5.082a.774.774,0,0,0,.774-.774V.773a.773.773,0,1,0-1.547,0V4.308a.773.773,0,0,0,.773.774" transform="translate(3607.84 -5326.137)" fill="#4738de"/>
    <path id="Tracé_166" data-name="Tracé 166" d="M5.848,14.368a.773.773,0,0,0,1.093-1.093l-2.5-2.5a.773.773,0,1,0-1.093,1.093Z" transform="translate(3622.58 -5332.192)" fill="#4738de"/>
    <path id="Tracé_167" data-name="Tracé 167" d="M47.514,14.594a.771.771,0,0,0,.547-.227l2.5-2.5a.773.773,0,1,0-1.094-1.093l-2.5,2.5a.773.773,0,0,0,.547,1.32" transform="translate(3596.579 -5332.192)" fill="#4738de"/>
    <rect id="Rectangle_174" data-name="Rectangle 174" width="38" height="41.674" transform="translate(3624.372 -5326.137)" fill="none"/>
  </g>
</svg>
