<svg id="Groupe_247" data-name="Groupe 247" xmlns="http://www.w3.org/2000/svg" xmlns:xlink="http://www.w3.org/1999/xlink" width="34" height="44.771" viewBox="0 0 34 44.771">
  <defs>
    <clipPath id="clip-path">
      <rect id="Rectangle_244" data-name="Rectangle 244" width="34" height="44.771" fill="#4738de"/>
    </clipPath>
  </defs>
  <g id="Groupe_246" data-name="Groupe 246" clip-path="url(#clip-path)">
    <path id="Tracé_273" data-name="Tracé 273" d="M32.652,11.41a.91.91,0,0,0-.876-.868l-5.242-.191V6.339A6.336,6.336,0,0,0,16.027,1.567a5.527,5.527,0,0,0-6.785,5.38V9.72L7.925,9.672H7.884l-.066,0-.042,0-.059.009L7.676,9.7l-.062.018-.026.007L1.977,11.714a.91.91,0,0,0-.6.811L0,39.107a.911.911,0,0,0,.38.787L6.96,44.6,7,44.628l.016.011q.034.02.068.038l.015.007.056.025.024.009.049.016.028.008.049.011.028.005.052.007.025,0c.026,0,.051,0,.077,0h0a.906.906,0,0,0,.105-.006h0l25.6-3a.91.91,0,0,0,.8-.946ZM20.195,1.821a4.524,4.524,0,0,1,4.518,4.518v3.945l-4.422-.161V6.947a5.522,5.522,0,0,0-2.352-4.52,4.489,4.489,0,0,1,2.256-.606M15.677,9.954V6.339a4.493,4.493,0,0,1,.859-2.646A3.707,3.707,0,0,1,18.47,6.947v3.109ZM11.062,6.947a3.708,3.708,0,0,1,3.6-3.7,6.3,6.3,0,0,0-.808,3.094V9.888l-2.794-.1Zm-7.9,6.279,3.807-1.35L6.92,15.718,6.6,42.105,1.845,38.7ZM8.412,42.836l.121-10.029.257-21.281,1.1.04a.9.9,0,0,0,.462.017l3.506.128v2.772a1.7,1.7,0,1,0,1.821,0V11.776l3.391.124a.9.9,0,0,0,.565.021l5.081.185v2.376a1.7,1.7,0,1,0,1.821,0v-2.31l4.337.158,1.269,27.723Z" transform="translate(0.001)" fill="#4738de"/>
  </g>
</svg>
