<svg xmlns="http://www.w3.org/2000/svg" xmlns:xlink="http://www.w3.org/1999/xlink" width="40" height="25.674" viewBox="0 0 40 25.674">
  <defs>
    <clipPath id="clip-path">
      <rect id="Rectangle_221" data-name="Rectangle 221" width="40" height="25.674" fill="#4738de"/>
    </clipPath>
  </defs>
  <g id="Groupe_186" data-name="Groupe 186" transform="translate(0 0)">
    <g id="Groupe_185" data-name="Groupe 185" transform="translate(0 0)" clip-path="url(#clip-path)">
      <path id="Tracé_215" data-name="Tracé 215" d="M24.827,34.287a66.937,66.937,0,0,1-8.783-.509c-3.113-.435-4.327-1.012-4.327-2.058V19.349a.856.856,0,0,1,1.16-.8L24.827,23.1,36.776,18.55a.856.856,0,0,1,1.161.8V31.72c0,1.046-1.213,1.623-4.327,2.058a66.943,66.943,0,0,1-8.783.509m-11.4-2.853c.881.441,4.73,1.142,11.4,1.142s10.516-.7,11.4-1.142V20.591L25.132,24.817a.857.857,0,0,1-.609,0L13.43,20.591Z" transform="translate(-6 -9.469)" fill="#4738de"/>
      <path id="Tracé_216" data-name="Tracé 216" d="M18.828,15.4a.85.85,0,0,1-.3-.057L.551,8.5a.856.856,0,0,1,0-1.6L18.523.056a.857.857,0,0,1,.609,0L37.1,6.9a.856.856,0,0,1,0,1.6L19.133,15.348a.855.855,0,0,1-.3.057M3.26,7.7l15.568,5.931L34.4,7.7,18.828,1.772Z" transform="translate(0 0)" fill="#4738de"/>
      <path id="Tracé_217" data-name="Tracé 217" d="M56.554,21.731a.856.856,0,0,1-.856-.856V15.741H39.437a.856.856,0,0,1,0-1.712H56.554a.855.855,0,0,1,.855.856v5.991a.856.856,0,0,1-.855.856" transform="translate(-19.754 -7.183)" fill="#4738de"/>
      <path id="Tracé_218" data-name="Tracé 218" d="M72.053,39.142a3.2,3.2,0,0,1-3.188-3.49l.62-6.822a2.567,2.567,0,0,1,5.134,0l.62,6.822a3.2,3.2,0,0,1-3.187,3.49m0-11.125a.857.857,0,0,0-.856.856.688.688,0,0,1,0,.078l-.624,6.857a1.489,1.489,0,1,0,2.966,0l-.624-6.857c0-.026,0-.052,0-.078a.857.857,0,0,0-.855-.856" transform="translate(-35.253 -13.469)" fill="#4738de"/>
    </g>
  </g>
</svg>
