<svg xmlns="http://www.w3.org/2000/svg" width="90" height="63.6" viewBox="0 0 90 63.6">
  <path id="Icon_awesome-car-side" data-name="Icon awesome-car-side" d="M74.8,24.25H72.6L57.643,5.553a8.8,8.8,0,0,0-6.872-3.3H21.358a8.8,8.8,0,0,0-8.17,5.532L6.6,24.561A8.779,8.779,0,0,0,0,33.05v15.4a2.2,2.2,0,0,0,2.2,2.2H8.8a13.2,13.2,0,1,0,26.4,0H52.8a13.2,13.2,0,1,0,26.4,0h6.6a2.2,2.2,0,0,0,2.2-2.2v-11A13.2,13.2,0,0,0,74.8,24.25ZM22,57.25a6.6,6.6,0,1,1,6.6-6.6A6.607,6.607,0,0,1,22,57.25Zm9.9-33H16.078l5.28-13.2H31.9Zm6.6,0V11.05h12.27l10.56,13.2Zm27.5,33a6.6,6.6,0,1,1,6.6-6.6A6.607,6.607,0,0,1,66,57.25Z" transform="translate(1 -1.25)" fill="none" stroke="#fff" stroke-width="2"/>
</svg>
