<svg id="Groupe_66" data-name="Groupe 66" xmlns="http://www.w3.org/2000/svg" xmlns:xlink="http://www.w3.org/1999/xlink" width="90" height="80.662" viewBox="0 0 90 80.662">
  <defs>
    <clipPath id="clip-path">
      <rect id="Rectangle_48" data-name="Rectangle 48" width="90" height="80.662" transform="translate(0 0)" fill="#fff"/>
    </clipPath>
  </defs>
  <g id="Groupe_65" data-name="Groupe 65" transform="translate(0 0)" clip-path="url(#clip-path)">
    <path id="Tracé_31" data-name="Tracé 31" d="M622.537,819.914v0c0-.042-.01-.081-.012-.122h0c0,.042.013.082.013.125" transform="translate(-585.834 -771.473)" fill="#fff"/>
    <path id="Tracé_32" data-name="Tracé 32" d="M733.194,1007.662c.007-.01.011-.022.017-.032l-.042.062c.008-.01.018-.018.025-.029" transform="translate(-689.958 -948.243)" fill="#fff"/>
    <path id="Tracé_33" data-name="Tracé 33" d="M560.029,910.683h0s0,0,0,0,0,0,0,0" transform="translate(-527.023 -857.007)" fill="#fff"/>
    <path id="Tracé_34" data-name="Tracé 34" d="M484.014,861.094l.011.007h2.87l-.011-.007Z" transform="translate(-455.488 -810.344)" fill="#fff"/>
    <path id="Tracé_35" data-name="Tracé 35" d="M1016.441,1151.228l-.714.983a.384.384,0,0,0-.073.294.38.38,0,0,0,.159.251.384.384,0,0,0,.516-.073l.774-.942q-.337-.249-.662-.513" transform="translate(-955.79 -1083.378)" fill="#fff"/>
    <path id="Tracé_36" data-name="Tracé 36" d="M1383.541,1152.467l.747.918a.383.383,0,0,0,.676-.176.379.379,0,0,0-.07-.289l-.717-.943q-.313.252-.637.491" transform="translate(-1302 -1084.082)" fill="#fff"/>
    <path id="Tracé_37" data-name="Tracé 37" d="M329.067,836.177h12.1a.78.78,0,0,0,.78-.78h0a.78.78,0,0,0-.78-.78h-12.1a.78.78,0,1,0,0,1.561" transform="translate(-308.939 -785.427)" fill="#fff"/>
    <path id="Tracé_38" data-name="Tracé 38" d="M391.889,899h8.4a.78.78,0,0,0,.78-.777s0,0,0,0h0a.78.78,0,0,0-.78-.78h-8.4a.78.78,0,1,0,0,1.56" transform="translate(-368.058 -844.547)" fill="#fff"/>
    <path id="Tracé_39" data-name="Tracé 39" d="M73.824,1073.658h27.82a.78.78,0,0,0,0-1.56H73.824a.78.78,0,1,0,0,1.56" transform="translate(-68.739 -1008.911)" fill="#fff"/>
    <path id="Tracé_40" data-name="Tracé 40" d="M75.547,833.6h8.13a2.506,2.506,0,0,0,2.5-2.5v-5.464a2.505,2.505,0,0,0-2.5-2.5h-8.13a2.506,2.506,0,0,0-2.5,2.5V831.1a2.5,2.5,0,0,0,2.5,2.5m9.07-7.991c0,.008,0,.016,0,.025V831.1a.944.944,0,0,1-.943.942h-8.13a.944.944,0,0,1-.943-.942v-5.464a.944.944,0,0,1,.943-.943h8.13a.942.942,0,0,1,.94.918" transform="translate(-68.739 -774.62)" fill="#fff"/>
    <path id="Tracé_41" data-name="Tracé 41" d="M34.633,556.691a3.632,3.632,0,0,0,3.4-2.361l5.181-7.656.042-.062.488-.721a.737.737,0,0,0,.064-.075.757.757,0,0,0,.045-.086l2.676-3.954.01-.012c0-.005.005-.011.008-.016l.547-.808a3.968,3.968,0,0,0-1.14-5.488l-26-17.062a3.964,3.964,0,0,0-5.488,1.139l-.541.825h0L6.255,532.034H3.63A3.634,3.634,0,0,0,0,535.663v17.4a3.634,3.634,0,0,0,3.63,3.63ZM1.56,535.663a2.072,2.072,0,0,1,2.069-2.069h31a2.064,2.064,0,0,1,1.833,1.129,2.043,2.043,0,0,1,.224.819c0,.041.012.08.012.122v17.4a2.072,2.072,0,0,1-2.069,2.069h-31a2.095,2.095,0,0,1-2.069-2.069Zm15.725-16.312a2.389,2.389,0,0,1,1.807.344l26,17.062a2.4,2.4,0,0,1,1.079,2.055,2.361,2.361,0,0,1-.382,1.264l-.118.174-7.431-4.969a3.635,3.635,0,0,0-3.609-3.247H33.139L16.555,521.152l-.9-.593.113-.173a2.388,2.388,0,0,1,1.521-1.035m24.2,27.087L38.263,551.2h0v-8.088l3.79,2.487ZM14.8,521.863l15.5,10.17H24.221l-10.387-6.816-.867-.569Zm29.449,20.5-1.317,1.946-4.665-3.061h0v-4.075l6.536,4.371ZM12.111,525.954l9.266,6.08H8.122Z" transform="translate(0 -487.226)" fill="#fff"/>
    <path id="Tracé_42" data-name="Tracé 42" d="M924.963,567.463a6.152,6.152,0,0,0-8.585-.037l-.256.248a16.988,16.988,0,0,0-7.2-1.9v-2.846h1a.78.78,0,0,0,0-1.56h-3.565a.78.78,0,1,0,0,1.56h1v2.853a16.985,16.985,0,0,0-7.278,2.06l-.422-.41a6.152,6.152,0,0,0-8.752,8.642l1.184,1.2a17.053,17.053,0,0,0,2.329,15.641,17.242,17.242,0,0,0,1.877,2.172l-.177.244-.627.863a1.943,1.943,0,0,0,3.07,2.38l.867-1.055a17.073,17.073,0,0,0,17.622.019l.84,1.031a1.943,1.943,0,0,0,3.067-2.384l-.795-1.046a17.079,17.079,0,0,0,4.14-18.206l.837-.873a6.117,6.117,0,0,0-.181-8.59M919.782,597.4a.38.38,0,0,1-.159.251.384.384,0,0,1-.518-.075l-.747-.917q.324-.238.637-.491l.716.943a.38.38,0,0,1,.07.289m-22.942.251a.383.383,0,0,1-.086-.545l.714-.983q.324.264.662.513l-.774.942a.384.384,0,0,1-.516.073m1.061-28.4a17.227,17.227,0,0,0-4.7,5.5c-.165.306-.318.619-.465.935l-.695-.7a4.591,4.591,0,0,1,6.541-6.441l.131.128c-.276.186-.544.382-.808.584m-1.854,23.212a15.544,15.544,0,1,1,27.745-10.276c.01.222.017.445.017.669a15.54,15.54,0,0,1-27.762,9.607m22.29-23.422q-.4-.29-.81-.556a4.6,4.6,0,0,1,7.672,2.684c.007.051.019.1.024.151a4.56,4.56,0,0,1-1.212,3.654l-.373.389a17.219,17.219,0,0,0-5.3-6.322" transform="translate(-836.817 -528.278)" fill="#fff"/>
    <path id="Tracé_43" data-name="Tracé 43" d="M1010.862,702.309a.78.78,0,0,0,.675-.387,12.109,12.109,0,0,1,16.55-4.367.778.778,0,0,0,1.015-.208.761.761,0,0,0,.053-.072.78.78,0,0,0-.28-1.067,13.669,13.669,0,0,0-18.684,4.928.778.778,0,0,0,.218,1.022c.021.015.04.032.063.046a.778.778,0,0,0,.393.106" transform="translate(-950.552 -653.429)" fill="#fff"/>
    <path id="Tracé_44" data-name="Tracé 44" d="M1007.719,762.538a13.7,13.7,0,0,0-4.4-10.04.78.78,0,0,0-1.1.044.723.723,0,0,0-.052.085.771.771,0,0,0,.1,1.017,12.1,12.1,0,1,1-19.823,5.491.78.78,0,0,0-1.5-.438,13.663,13.663,0,1,0,26.776,3.84" transform="translate(-922.615 -707.953)" fill="#fff"/>
    <path id="Tracé_45" data-name="Tracé 45" d="M1199.314,823.92a.78.78,0,0,0,.743.058l8.94-4a.78.78,0,0,0-.637-1.425l-7.841,3.5v-4.918a.78.78,0,1,0-1.561,0v6.122a.779.779,0,0,0,.356.655" transform="translate(-1128.295 -768.249)" fill="#fff"/>
    <path id="Tracé_46" data-name="Tracé 46" d="M381.778.173a.79.79,0,0,0-1.1.1l-6.266,7.59h-8.172a3.562,3.562,0,0,0,0,7.124h.2L369.429,29.9a6.121,6.121,0,0,0,5.986,4.906h24.612a6.121,6.121,0,0,0,5.986-4.906L409,14.982a3.56,3.56,0,0,0-.189-7.115H400.19L393.924.278a.78.78,0,0,0-1.2.994l5.446,6.6H376.437l5.446-6.6a.78.78,0,0,0-.1-1.1m17.676,9.255,1.02,1.235,1.021,1.236a.78.78,0,0,0,1.2-.994l-.2-.243-1.02-1.235h7.333a2,2,0,0,1,2,2h0a2,2,0,0,1-2,2H366.242a2,2,0,1,1,0-4h6.884l-1.02,1.235-.2.243a.78.78,0,1,0,1.2.994l1.021-1.236,1.02-1.235Zm7.952,5.564V15l-2.922,14.591a4.557,4.557,0,0,1-4.456,3.652H375.415a4.557,4.557,0,0,1-4.456-3.652L368.036,15v-.007Z" transform="translate(-341.305 0.003)" fill="#fff"/>
    <path id="Tracé_47" data-name="Tracé 47" d="M558.385,308.39l1.9,9.4a.78.78,0,0,0,1.545-.152.794.794,0,0,0-.016-.157l-1.9-9.4a.779.779,0,0,0-1.534.264c0,.015,0,.03,0,.046" transform="translate(-525.464 -289.334)" fill="#fff"/>
    <path id="Tracé_48" data-name="Tracé 48" d="M970.247,318.4a.78.78,0,0,0,.92-.61l1.9-9.4a.778.778,0,0,0-.61-.92.779.779,0,0,0-.92.61l-1.9,9.4a.8.8,0,0,0-.015.164.78.78,0,0,0,.625.755" transform="translate(-912.475 -289.333)" fill="#fff"/>
    <path id="Tracé_49" data-name="Tracé 49" d="M779.447,318.422a.78.78,0,0,0,.78-.78v-9.4h0a.78.78,0,1,0-1.56,0v9.4s0,0,0,.007a.78.78,0,0,0,.779.773" transform="translate(-732.775 -289.337)" fill="#fff"/>
    <path id="Tracé_50" data-name="Tracé 50" d="M72.519,75.427c-.078.911-.118,1.84-.118,2.762a.78.78,0,0,0,1.56,0c0-.877.038-1.761.113-2.628a30.272,30.272,0,0,1,14.372-23.2l.033-.021-.795,2.095a.78.78,0,1,0,1.459.553l1.692-4.46a.78.78,0,0,0-.8-1.054l-5.177.481A.78.78,0,0,0,85,51.511l2.1-.195.068-.006A31.837,31.837,0,0,0,72.519,75.427" transform="translate(-68.134 -46.557)" fill="#fff"/>
    <path id="Tracé_51" data-name="Tracé 51" d="M1198.59,77.576a.78.78,0,0,0-1.023.412l-.838,1.967c0-.014-.006-.028-.009-.043a30.748,30.748,0,0,0-14.974-21.138.78.78,0,0,0-.774,1.355,29.22,29.22,0,0,1,14.265,20.319l-1.656-1.916a.78.78,0,0,0-1.181,1.02l3.332,3.856a.781.781,0,0,0,.59.27.768.768,0,0,0,.12-.009.781.781,0,0,0,.6-.465L1199,78.6a.782.782,0,0,0-.412-1.024" transform="translate(-1110.999 -55.213)" fill="#fff"/>
    <path id="Tracé_52" data-name="Tracé 52" d="M562.479,1260.838a.78.78,0,0,0,.336-1.051c0-.006-.008-.011-.011-.017a.779.779,0,0,0-1.04-.319,31,31,0,0,1-26.1,1.019l.048,0,2.567-.128a.78.78,0,0,0-.078-1.559l-5.4.27a.78.78,0,0,0-.644,1.157l2.553,4.617.014.026a.78.78,0,1,0,1.366-.755l-1.265-2.288a32.538,32.538,0,0,0,27.645-.97" transform="translate(-500.71 -1184.591)" fill="#fff"/>
  </g>
</svg>
